SplineFontDB: 3.2
FontName: SFProText-Semibold
FullName: SF Pro Text Semibold
FamilyName: SF Pro Text
Weight: Demi
Copyright: (c) 2015-2020 Apple Inc. All rights reserved.
Version: 16.0d18e1
ItalicAngle: 0
UnderlinePosition: -455
UnderlineWidth: 165
Ascent: 1638
Descent: 410
InvalidEm: 0
sfntRevision: 0x00010000
woffMajor: 0
woffMinor: 0
LayerCount: 2
Layer: 0 1 "Back" 1
Layer: 1 1 "Fore" 0
XUID: [1021 865 -1913544620 28181]
BaseHoriz: 4 'hang' 'ideo' 'math' 'romn'
BaseScript: 'cyrl' 3  0 -216 0 0
BaseScript: 'grek' 3  0 -216 0 0
BaseScript: 'hebr' 3  0 -216 0 0
BaseScript: 'latn' 3  0 -216 0 0
BaseScript: 'mymr' 3  0 -216 0 0
BaseScript: 'runr' 3  0 -216 0 0
BaseScript: 'thai' 3  0 -216 0 0
StyleMap: 0x0040
FSType: 0
OS2Version: 4
OS2_WeightWidthSlopeOnly: 0
OS2_UseTypoMetrics: 0
CreationTime: 1604385830
ModificationTime: 1693289921
PfmFamily: 81
TTFWeight: 600
TTFWidth: 5
LineGap: 0
VLineGap: 0
Panose: 0 0 0 0 0 0 0 0 0 0
OS2TypoAscent: 1950
OS2TypoAOffset: 0
OS2TypoDescent: -494
OS2TypoDOffset: 0
OS2TypoLinegap: 0
OS2WinAscent: 1950
OS2WinAOffset: 0
OS2WinDescent: 494
OS2WinDOffset: 0
HheadAscent: 1950
HheadAOffset: 0
HheadDescent: -494
HheadDOffset: 0
OS2SubXSize: 650
OS2SubYSize: 600
OS2SubXOff: 0
OS2SubYOff: 75
OS2SupXSize: 650
OS2SupYSize: 600
OS2SupXOff: 0
OS2SupYOff: 350
OS2StrikeYSize: 165
OS2StrikeYPos: 645
OS2CapHeight: 1443
OS2XHeight: 1093
OS2Vendor: 'APPL'
OS2CodePages: 6000019f.00000000
OS2UnicodeRanges: e10002ff.5241ecff.04008020.00000000
Lookup: 2 0 0 "'ccmp' Glyph Composition/Decomposition lookup 0" { "'ccmp' Glyph Composition/Decomposition lookup 0 subtable"  } ['ccmp' ('DFLT' <'dflt' > 'cyrl' <'BGR ' 'BSH ' 'SRB ' 'YAK ' 'dflt' > 'latn' <'AZE ' 'CAT ' 'CRT ' 'MOL ' 'NLD ' 'ROM ' 'TRK ' 'dflt' > ) ]

StartChar: exclamationmark
Encoding: 33 33 1
Width: 696
GlyphClass: 2
Flags: W
LayerCount: 2
Fore
SplineSet
232 477 m 1,0,-1
 209 1444 l 1,1,-1
 486 1444 l 1,2,-1
 463 477 l 1,3,-1
 232 477 l 1,0,-1
348 -25 m 128,-1,5
 272 -25 272 -25 227 18 c 128,-1,6
 182 61 182 61 182 132 c 0,7,8
 182 204 182 204 227 247 c 128,-1,9
 272 290 272 290 348 290 c 128,-1,10
 424 290 424 290 469 247 c 128,-1,11
 514 204 514 204 514 132 c 0,12,13
 514 61 514 61 469 18 c 128,-1,4
 424 -25 424 -25 348 -25 c 128,-1,5
EndSplineSet
Substitution2: "'smcp' Lowercase to Small Capitals lookup 19 subtable" exclamationmark.sc
Substitution2: "'c2sc' Capitals to Small Capitals lookup 18 subtable" exclamationmark.sc
EndChar

StartChar: quotedbl
Encoding: 34 34 2
Width: 1097
GlyphClass: 2
Flags: W
LayerCount: 2
Fore
SplineSet
241 842 m 1,0,-1
 215 1443 l 1,1,-1
 459 1443 l 1,2,-1
 433 842 l 1,3,-1
 241 842 l 1,0,-1
664 842 m 1,4,-1
 638 1443 l 1,5,-1
 882 1443 l 1,6,-1
 856 842 l 1,7,-1
 664 842 l 1,4,-1
EndSplineSet
EndChar

StartChar: numbersign
Encoding: 35 35 3
Width: 1344
GlyphClass: 2
Flags: W
LayerCount: 2
Fore
SplineSet
377 0 m 1,0,-1
 186 0 l 1,1,-1
 263 385 l 1,2,-1
 33 385 l 1,3,-1
 70 574 l 1,4,-1
 301 574 l 1,5,-1
 364 886 l 1,6,-1
 125 886 l 1,7,-1
 162 1074 l 1,8,-1
 402 1074 l 1,9,-1
 477 1443 l 1,10,-1
 669 1443 l 1,11,-1
 594 1074 l 1,12,-1
 877 1074 l 1,13,-1
 951 1443 l 1,14,-1
 1144 1443 l 1,15,-1
 1070 1074 l 1,16,-1
 1311 1074 l 1,17,-1
 1275 886 l 1,18,-1
 1032 886 l 1,19,-1
 969 574 l 1,20,-1
 1218 574 l 1,21,-1
 1182 385 l 1,22,-1
 930 385 l 1,23,-1
 853 0 l 1,24,-1
 659 0 l 1,25,-1
 738 385 l 1,26,-1
 455 385 l 1,27,-1
 377 0 l 1,0,-1
484 565 m 1,28,-1
 782 565 l 1,29,-1
 848 893 l 1,30,-1
 550 893 l 1,31,-1
 484 565 l 1,28,-1
EndSplineSet
Substitution2: "'numr' Numerators lookup 33 subtable" numbersign.numr
Substitution2: "'c2sc' Capitals to Small Capitals lookup 18 subtable" numbersign.sc
Substitution2: "'case' Case-Sensitive Forms lookup 17 subtable" numbersign.uc
EndChar

StartChar: dollarsign
Encoding: 36 36 4
Width: 1344
GlyphClass: 2
Flags: W
LayerCount: 2
Fore
SplineSet
619 -143 m 1,0,-1
 619 23 l 1,1,2
 414 36 414 36 282 142.5 c 128,-1,3
 150 249 150 249 144 426 c 1,4,-1
 145 427 l 1,5,-1
 377 428 l 1,6,-1
 378 426 l 1,7,8
 406 246 406 246 619 223 c 1,9,-1
 619 627 l 1,10,-1
 568 639 l 2,11,12
 370 684 370 684 270.5 777 c 128,-1,13
 171 870 171 870 171 1022 c 2,14,-1
 171 1024 l 2,15,16
 171 1193 171 1193 295.5 1299.5 c 128,-1,17
 420 1406 420 1406 619 1420 c 1,18,-1
 619 1588 l 1,19,-1
 736 1588 l 1,20,-1
 736 1420 l 1,21,22
 932 1404 932 1404 1055 1294 c 128,-1,23
 1178 1184 1178 1184 1185 1014 c 1,24,-1
 1185 1013 l 1,25,-1
 953 1012 l 1,26,-1
 952 1014 l 1,27,28
 942 1100 942 1100 885 1153 c 128,-1,29
 828 1206 828 1206 736 1219 c 1,30,-1
 736 831 l 1,31,-1
 792 818 l 2,32,33
 1000 770 1000 770 1101.5 679.5 c 128,-1,34
 1203 589 1203 589 1203 432 c 2,35,-1
 1203 430 l 2,36,37
 1203 251 1203 251 1073 144.5 c 128,-1,38
 943 38 943 38 736 23 c 1,39,-1
 736 -143 l 1,40,-1
 619 -143 l 1,0,-1
412 1040 m 2,41,42
 412 976 412 976 461 931.5 c 128,-1,43
 510 887 510 887 619 858 c 1,44,-1
 619 1219 l 1,45,46
 520 1207 520 1207 466 1158 c 128,-1,47
 412 1109 412 1109 412 1042 c 2,48,-1
 412 1040 l 2,41,42
962 408 m 2,49,50
 962 481 962 481 912 524.5 c 128,-1,51
 862 568 862 568 736 600 c 1,52,-1
 736 223 l 1,53,54
 849 232 849 232 905.5 280.5 c 128,-1,55
 962 329 962 329 962 406 c 2,56,-1
 962 408 l 2,49,50
EndSplineSet
Substitution2: "'cv09' Character Variants 09 lookup 50 subtable" dollarsign.small
Substitution2: "'ss04' Style Set 4 lookup 47 subtable" dollarsign.open
Substitution2: "'numr' Numerators lookup 33 subtable" dollarsign.numr
Substitution2: "'c2sc' Capitals to Small Capitals lookup 18 subtable" dollarsign.sc
EndChar

StartChar: percent
Encoding: 37 37 5
Width: 2039
GlyphClass: 2
Flags: W
LayerCount: 2
Fore
SplineSet
455 664 m 128,-1,1
 304 664 304 664 217.5 771 c 128,-1,2
 131 878 131 878 131 1063 c 2,3,-1
 131 1064 l 2,4,5
 131 1249 131 1249 217.5 1356 c 128,-1,6
 304 1463 304 1463 455 1463 c 128,-1,7
 606 1463 606 1463 692.5 1356 c 128,-1,8
 779 1249 779 1249 779 1064 c 2,9,-1
 779 1063 l 2,10,11
 779 878 779 878 692.5 771 c 128,-1,0
 606 664 606 664 455 664 c 128,-1,1
635 0 m 1,12,-1
 429 0 l 1,13,-1
 1404 1443 l 1,14,-1
 1610 1443 l 1,15,-1
 635 0 l 1,12,-1
455 809 m 0,16,17
 523 809 523 809 561 875.5 c 128,-1,18
 599 942 599 942 599 1063 c 2,19,-1
 599 1064 l 2,20,21
 599 1185 599 1185 561 1251.5 c 128,-1,22
 523 1318 523 1318 455 1318 c 0,23,24
 386 1318 386 1318 349 1252 c 128,-1,25
 312 1186 312 1186 312 1064 c 2,26,-1
 312 1063 l 2,27,28
 312 942 312 942 349 875.5 c 128,-1,29
 386 809 386 809 455 809 c 0,16,17
1584 -20 m 0,30,31
 1433 -20 1433 -20 1346 87.5 c 128,-1,32
 1259 195 1259 195 1259 380 c 2,33,-1
 1259 381 l 2,34,35
 1259 566 1259 566 1346 672.5 c 128,-1,36
 1433 779 1433 779 1584 779 c 128,-1,37
 1735 779 1735 779 1821.5 672.5 c 128,-1,38
 1908 566 1908 566 1908 381 c 2,39,-1
 1908 380 l 2,40,41
 1908 195 1908 195 1821 87.5 c 128,-1,42
 1734 -20 1734 -20 1584 -20 c 0,30,31
1584 125 m 0,43,44
 1652 125 1652 125 1690 192 c 128,-1,45
 1728 259 1728 259 1728 380 c 2,46,-1
 1728 381 l 2,47,48
 1728 502 1728 502 1690 568 c 128,-1,49
 1652 634 1652 634 1584 634 c 0,50,51
 1515 634 1515 634 1477.5 568 c 128,-1,52
 1440 502 1440 502 1440 381 c 2,53,-1
 1440 380 l 2,54,55
 1440 258 1440 258 1477.5 191.5 c 128,-1,56
 1515 125 1515 125 1584 125 c 0,43,44
EndSplineSet
EndChar

StartChar: ampersand
Encoding: 38 38 6
Width: 1500
GlyphClass: 2
Flags: W
LayerCount: 2
Fore
SplineSet
609 -27 m 0,0,1
 384 -27 384 -27 247 85 c 128,-1,2
 110 197 110 197 110 380 c 2,3,-1
 110 382 l 2,4,5
 110 509 110 509 178 605 c 128,-1,6
 246 701 246 701 388 774 c 2,7,-1
 447 805 l 1,8,9
 345 919 345 919 305.5 991.5 c 128,-1,10
 266 1064 266 1064 266 1138 c 2,11,-1
 266 1140 l 2,12,13
 266 1284 266 1284 378 1377 c 128,-1,14
 490 1470 490 1470 661 1470 c 128,-1,15
 832 1470 832 1470 942 1378 c 128,-1,16
 1052 1286 1052 1286 1052 1143 c 2,17,-1
 1052 1141 l 2,18,19
 1052 1033 1052 1033 981.5 943.5 c 128,-1,20
 911 854 911 854 750 765 c 1,21,-1
 1055 444 l 1,22,23
 1116 581 1116 581 1116 765 c 2,24,-1
 1116 803 l 1,25,-1
 1333 803 l 1,26,-1
 1333 752 l 2,27,28
 1333 472 1333 472 1210 279 c 1,29,-1
 1473 1 l 1,30,-1
 1473 0 l 1,31,-1
 1183 0 l 1,32,-1
 1071 123 l 1,33,34
 888 -27 888 -27 609 -27 c 0,0,1
489 1128 m 2,35,36
 489 1078 489 1078 519 1028.5 c 128,-1,37
 549 979 549 979 632 891 c 1,38,39
 744 951 744 951 790 1005.5 c 128,-1,40
 836 1060 836 1060 836 1128 c 2,41,-1
 836 1130 l 2,42,43
 836 1202 836 1202 787.5 1248 c 128,-1,44
 739 1294 739 1294 662 1294 c 0,45,46
 586 1294 586 1294 537.5 1248 c 128,-1,47
 489 1202 489 1202 489 1130 c 2,48,-1
 489 1128 l 2,35,36
349 399 m 2,49,50
 349 294 349 294 428 228.5 c 128,-1,51
 507 163 507 163 634 163 c 0,52,53
 811 163 811 163 934 273 c 1,54,-1
 571 669 l 1,55,-1
 526 646 l 2,56,57
 349 558 349 558 349 401 c 2,58,-1
 349 399 l 2,49,50
EndSplineSet
Substitution2: "'smcp' Lowercase to Small Capitals lookup 19 subtable" ampersand.sc
Substitution2: "'c2sc' Capitals to Small Capitals lookup 18 subtable" ampersand.sc
EndChar

StartChar: quotesingle
Encoding: 39 39 7
Width: 674
GlyphClass: 2
Flags: W
LayerCount: 2
Fore
SplineSet
241 842 m 1,0,-1
 215 1443 l 1,1,-1
 459 1443 l 1,2,-1
 433 842 l 1,3,-1
 241 842 l 1,0,-1
EndSplineSet
EndChar

StartChar: parenleft
Encoding: 40 40 8
Width: 843
GlyphClass: 2
Flags: W
LayerCount: 2
Fore
SplineSet
522 -363 m 1,0,1
 230 3 230 3 230 577 c 0,2,3
 230 1152 230 1152 522 1516 c 1,4,-1
 746 1516 l 1,5,6
 635 1375 635 1375 560.5 1108 c 128,-1,7
 486 841 486 841 486 577 c 0,8,9
 486 312 486 312 560 46 c 128,-1,10
 634 -220 634 -220 746 -363 c 1,11,-1
 522 -363 l 1,0,1
EndSplineSet
Substitution2: "'frac' Diagonal Fractions lookup 35 subtable" parenleft.numr
Substitution2: "'numr' Numerators lookup 33 subtable" parenleft.numr
Substitution2: "'dnom' Denominators lookup 32 subtable" parenleft.dnom
Substitution2: "'sups' Superscript lookup 31 subtable" parenleft.sups
Substitution2: "'case' Case-Sensitive Forms lookup 17 subtable" parenleft.uc
EndChar

StartChar: parenright
Encoding: 41 41 9
Width: 843
GlyphClass: 2
Flags: W
LayerCount: 2
Fore
SplineSet
321 -363 m 1,0,-1
 97 -363 l 1,1,2
 209 -220 209 -220 283 46 c 128,-1,3
 357 312 357 312 357 577 c 0,4,5
 357 841 357 841 282.5 1108 c 128,-1,6
 208 1375 208 1375 97 1516 c 1,7,-1
 321 1516 l 1,8,9
 613 1152 613 1152 613 577 c 0,10,11
 613 3 613 3 321 -363 c 1,0,-1
EndSplineSet
Substitution2: "'frac' Diagonal Fractions lookup 35 subtable" parenright.numr
Substitution2: "'numr' Numerators lookup 33 subtable" parenright.numr
Substitution2: "'dnom' Denominators lookup 32 subtable" parenright.dnom
Substitution2: "'sups' Superscript lookup 31 subtable" parenright.sups
Substitution2: "'case' Case-Sensitive Forms lookup 17 subtable" parenright.uc
EndChar

StartChar: asterisk
Encoding: 42 42 10
Width: 983
GlyphClass: 2
Flags: W
LayerCount: 2
Fore
SplineSet
400 668 m 1,0,-1
 413 918 l 1,1,-1
 213 787 l 1,2,-1
 122 930 l 1,3,-1
 348 1050 l 1,4,-1
 122 1169 l 1,5,-1
 213 1312 l 1,6,-1
 413 1182 l 1,7,-1
 400 1431 l 1,8,-1
 583 1431 l 1,9,-1
 571 1183 l 1,10,-1
 769 1313 l 1,11,-1
 861 1170 l 1,12,-1
 635 1050 l 1,13,-1
 861 930 l 1,14,-1
 769 787 l 1,15,-1
 571 917 l 1,16,-1
 583 668 l 1,17,-1
 400 668 l 1,0,-1
EndSplineSet
Substitution2: "'case' Case-Sensitive Forms lookup 17 subtable" asterisk.uc
EndChar

StartChar: plus
Encoding: 43 43 11
Width: 1344
GlyphClass: 2
Flags: W
LayerCount: 2
Fore
SplineSet
121 469 m 1,0,-1
 121 695 l 1,1,-1
 559 695 l 1,2,-1
 559 1128 l 1,3,-1
 785 1128 l 1,4,-1
 785 695 l 1,5,-1
 1223 695 l 1,6,-1
 1223 469 l 1,7,-1
 785 469 l 1,8,-1
 785 36 l 1,9,-1
 559 36 l 1,10,-1
 559 469 l 1,11,-1
 121 469 l 1,0,-1
EndSplineSet
Substitution2: "'frac' Diagonal Fractions lookup 35 subtable" plus.numr
Substitution2: "'numr' Numerators lookup 33 subtable" plus.numr
Substitution2: "'dnom' Denominators lookup 32 subtable" plus.dnom
Substitution2: "'sups' Superscript lookup 31 subtable" plus.sups
Substitution2: "'case' Case-Sensitive Forms lookup 17 subtable" plus.uc
EndChar

StartChar: comma
Encoding: 44 44 12
Width: 674
GlyphClass: 2
Flags: W
LayerCount: 2
Fore
SplineSet
119 -381 m 1,0,-1
 206 220 l 1,1,-1
 463 220 l 1,2,-1
 289 -381 l 1,3,-1
 119 -381 l 1,0,-1
EndSplineSet
EndChar

StartChar: period
Encoding: 46 46 13
Width: 674
GlyphClass: 2
Flags: W
LayerCount: 2
Fore
SplineSet
337 -20 m 0,0,1
 269 -20 269 -20 223.5 25.5 c 128,-1,2
 178 71 178 71 178 138 c 128,-1,3
 178 205 178 205 223.5 250.5 c 128,-1,4
 269 296 269 296 337 296 c 0,5,6
 406 296 406 296 451 250.5 c 128,-1,7
 496 205 496 205 496 138 c 128,-1,8
 496 71 496 71 451 25.5 c 128,-1,9
 406 -20 406 -20 337 -20 c 0,0,1
EndSplineSet
EndChar

StartChar: slash
Encoding: 47 47 14
Width: 663
GlyphClass: 2
Flags: W
LayerCount: 2
Fore
SplineSet
662 1516 m 1,0,-1
 232 -363 l 1,1,-1
 0 -363 l 1,2,-1
 430 1516 l 1,3,-1
 662 1516 l 1,0,-1
EndSplineSet
Substitution2: "'frac' Diagonal Fractions lookup 38 subtable" fraction
Substitution2: "'case' Case-Sensitive Forms lookup 17 subtable" slash.uc
EndChar

StartChar: zero
Encoding: 48 48 15
Width: 1361
GlyphClass: 2
Flags: W
LayerCount: 2
Fore
SplineSet
680 -36 m 0,0,1
 424 -36 424 -36 277.5 167 c 128,-1,2
 131 370 131 370 131 721 c 2,3,-1
 131 723 l 2,4,5
 131 1074 131 1074 277.5 1276.5 c 128,-1,6
 424 1479 424 1479 680 1479 c 0,7,8
 937 1479 937 1479 1084 1276 c 128,-1,9
 1231 1073 1231 1073 1231 723 c 2,10,-1
 1231 721 l 2,11,12
 1231 371 1231 371 1084 167.5 c 128,-1,13
 937 -36 937 -36 680 -36 c 0,0,1
680 173 m 0,14,15
 818 173 818 173 894.5 318.5 c 128,-1,16
 971 464 971 464 971 721 c 2,17,-1
 971 723 l 2,18,19
 971 980 971 980 894.5 1124.5 c 128,-1,20
 818 1269 818 1269 680 1269 c 0,21,22
 543 1269 543 1269 467 1125 c 128,-1,23
 391 981 391 981 391 723 c 2,24,-1
 391 721 l 2,25,26
 391 463 391 463 467 318 c 128,-1,27
 543 173 543 173 680 173 c 0,14,15
EndSplineSet
Substitution2: "'ss06' Style Set 6 lookup 43 subtable" zero.1
Substitution2: "'frac' Diagonal Fractions lookup 35 subtable" zero.numr
Substitution2: "'numr' Numerators lookup 33 subtable" zero.numr
Substitution2: "'dnom' Denominators lookup 32 subtable" zero.dnom
Substitution2: "'sups' Superscript lookup 31 subtable" zero.sups
Substitution2: "'subs' Subscript lookup 30 subtable" zero.subs
Substitution2: "'tnum' Tabular Numbers lookup 28 subtable" zero.tnum
Substitution2: "'c2sc' Capitals to Small Capitals lookup 18 subtable" zero.sc
EndChar

StartChar: one
Encoding: 49 49 16
Width: 1012
GlyphClass: 2
Flags: W
LayerCount: 2
Fore
SplineSet
504 0 m 1,0,-1
 504 1189 l 1,1,-1
 487 1189 l 1,2,-1
 128 935 l 1,3,-1
 128 1178 l 1,4,-1
 505 1443 l 1,5,-1
 762 1443 l 1,6,-1
 762 0 l 1,7,-1
 504 0 l 1,0,-1
EndSplineSet
Substitution2: "'frac' Diagonal Fractions lookup 35 subtable" one.numr
Substitution2: "'numr' Numerators lookup 33 subtable" one.numr
Substitution2: "'dnom' Denominators lookup 32 subtable" one.dnom
Substitution2: "'sups' Superscript lookup 31 subtable" one.sups
Substitution2: "'subs' Subscript lookup 30 subtable" one.subs
Substitution2: "'tnum' Tabular Numbers lookup 28 subtable" one.tnum
Substitution2: "'c2sc' Capitals to Small Capitals lookup 18 subtable" one.sc
EndChar

StartChar: two
Encoding: 50 50 17
Width: 1288
GlyphClass: 2
Flags: W
LayerCount: 2
Fore
SplineSet
151 0 m 1,0,-1
 151 174 l 1,1,-1
 625 658 l 2,2,3
 777 811 777 811 826.5 885 c 128,-1,4
 876 959 876 959 876 1040 c 2,5,-1
 876 1043 l 2,6,7
 876 1144 876 1144 811 1208 c 128,-1,8
 746 1272 746 1272 635 1272 c 0,9,10
 520 1272 520 1272 449.5 1203 c 128,-1,11
 379 1134 379 1134 379 1022 c 1,12,-1
 378 1018 l 1,13,-1
 138 1019 l 1,14,-1
 137 1022 l 1,15,16
 137 1224 137 1224 279.5 1351.5 c 128,-1,17
 422 1479 422 1479 648 1479 c 0,18,19
 859 1479 859 1479 995 1363 c 128,-1,20
 1131 1247 1131 1247 1131 1065 c 2,21,-1
 1131 1062 l 2,22,23
 1131 938 1131 938 1058 821 c 128,-1,24
 985 704 985 704 789 515 c 2,25,-1
 500 235 l 1,26,-1
 500 214 l 1,27,-1
 1153 214 l 1,28,-1
 1153 0 l 1,29,-1
 151 0 l 1,0,-1
EndSplineSet
Substitution2: "'frac' Diagonal Fractions lookup 35 subtable" two.numr
Substitution2: "'numr' Numerators lookup 33 subtable" two.numr
Substitution2: "'dnom' Denominators lookup 32 subtable" two.dnom
Substitution2: "'sups' Superscript lookup 31 subtable" two.sups
Substitution2: "'subs' Subscript lookup 30 subtable" two.subs
Substitution2: "'tnum' Tabular Numbers lookup 28 subtable" two.tnum
Substitution2: "'c2sc' Capitals to Small Capitals lookup 18 subtable" two.sc
EndChar

StartChar: three
Encoding: 51 51 18
Width: 1339
GlyphClass: 2
Flags: W
LayerCount: 2
Fore
SplineSet
673 -29 m 0,0,1
 439 -29 439 -29 292 86.5 c 128,-1,2
 145 202 145 202 131 390 c 2,3,-1
 130 402 l 1,4,-1
 376 402 l 1,5,-1
 377 391 l 2,6,7
 388 298 388 298 468 240 c 128,-1,8
 548 182 548 182 673 182 c 128,-1,9
 798 182 798 182 874.5 245 c 128,-1,10
 951 308 951 308 951 409 c 2,11,-1
 951 411 l 2,12,13
 951 524 951 524 872.5 585.5 c 128,-1,14
 794 647 794 647 654 647 c 2,15,-1
 484 647 l 1,16,-1
 484 839 l 1,17,-1
 649 839 l 2,18,19
 767 839 767 839 840.5 899.5 c 128,-1,20
 914 960 914 960 914 1055 c 2,21,-1
 914 1057 l 2,22,23
 914 1156 914 1156 850 1211.5 c 128,-1,24
 786 1267 786 1267 671 1267 c 0,25,26
 557 1267 557 1267 484 1210.5 c 128,-1,27
 411 1154 411 1154 401 1057 c 2,28,-1
 400 1047 l 1,29,-1
 160 1047 l 1,30,-1
 161 1058 l 2,31,32
 178 1246 178 1246 316 1359 c 128,-1,33
 454 1472 454 1472 671 1472 c 0,34,35
 893 1472 893 1472 1027 1366.5 c 128,-1,36
 1161 1261 1161 1261 1161 1091 c 2,37,-1
 1161 1089 l 2,38,39
 1161 959 1161 959 1077.5 871 c 128,-1,40
 994 783 994 783 859 755 c 1,41,-1
 859 750 l 1,42,43
 1021 735 1021 735 1116.5 643.5 c 128,-1,44
 1212 552 1212 552 1212 404 c 2,45,-1
 1212 402 l 2,46,47
 1212 211 1212 211 1062.5 91 c 128,-1,48
 913 -29 913 -29 673 -29 c 0,0,1
EndSplineSet
Substitution2: "'frac' Diagonal Fractions lookup 35 subtable" three.numr
Substitution2: "'numr' Numerators lookup 33 subtable" three.numr
Substitution2: "'dnom' Denominators lookup 32 subtable" three.dnom
Substitution2: "'sups' Superscript lookup 31 subtable" three.sups
Substitution2: "'subs' Subscript lookup 30 subtable" three.subs
Substitution2: "'tnum' Tabular Numbers lookup 28 subtable" three.tnum
Substitution2: "'c2sc' Capitals to Small Capitals lookup 18 subtable" three.sc
EndChar

StartChar: four
Encoding: 52 52 19
Width: 1375
GlyphClass: 2
Flags: W
LayerCount: 2
Fore
SplineSet
817 0 m 1,0,-1
 817 277 l 1,1,-1
 111 277 l 1,2,-1
 111 488 l 1,3,4
 391 975 391 975 699 1443 c 1,5,-1
 1064 1443 l 1,6,-1
 1064 490 l 1,7,-1
 1258 490 l 1,8,-1
 1258 277 l 1,9,-1
 1064 277 l 1,10,-1
 1064 0 l 1,11,-1
 817 0 l 1,0,-1
351 484 m 1,12,-1
 821 484 l 1,13,-1
 821 1237 l 1,14,-1
 806 1237 l 1,15,16
 545 838 545 838 351 499 c 1,17,-1
 351 484 l 1,12,-1
EndSplineSet
Substitution2: "'ss06' Style Set 6 lookup 44 subtable" four.1
Substitution2: "'frac' Diagonal Fractions lookup 35 subtable" four.numr
Substitution2: "'numr' Numerators lookup 33 subtable" four.numr
Substitution2: "'dnom' Denominators lookup 32 subtable" four.dnom
Substitution2: "'sups' Superscript lookup 31 subtable" four.sups
Substitution2: "'subs' Subscript lookup 30 subtable" four.subs
Substitution2: "'tnum' Tabular Numbers lookup 28 subtable" four.tnum
Substitution2: "'c2sc' Capitals to Small Capitals lookup 18 subtable" four.sc
EndChar

StartChar: five
Encoding: 53 53 20
Width: 1325
GlyphClass: 2
Flags: W
LayerCount: 2
Fore
SplineSet
672 -36 m 0,0,1
 455 -36 455 -36 314.5 82 c 128,-1,2
 174 200 174 200 159 381 c 2,3,-1
 158 394 l 1,4,-1
 396 394 l 1,5,-1
 397 387 l 2,6,7
 412 296 412 296 488 235.5 c 128,-1,8
 564 175 564 175 673 175 c 0,9,10
 800 175 800 175 879 255.5 c 128,-1,11
 958 336 958 336 958 464 c 2,12,-1
 958 466 l 2,13,14
 958 592 958 592 878.5 672 c 128,-1,15
 799 752 799 752 675 752 c 0,16,17
 550 752 550 752 471 680 c 0,18,19
 428 644 428 644 404 598 c 1,20,-1
 183 598 l 1,21,-1
 253 1443 l 1,22,-1
 1119 1443 l 1,23,-1
 1119 1231 l 1,24,-1
 454 1231 l 1,25,-1
 414 792 l 1,26,-1
 431 792 l 1,27,28
 476 865 476 865 557 906 c 128,-1,29
 638 947 638 947 739 947 c 0,30,31
 941 947 941 947 1072 812.5 c 128,-1,32
 1203 678 1203 678 1203 471 c 2,33,-1
 1203 469 l 2,34,35
 1203 245 1203 245 1055 104.5 c 128,-1,36
 907 -36 907 -36 672 -36 c 0,0,1
EndSplineSet
Substitution2: "'frac' Diagonal Fractions lookup 35 subtable" five.numr
Substitution2: "'numr' Numerators lookup 33 subtable" five.numr
Substitution2: "'dnom' Denominators lookup 32 subtable" five.dnom
Substitution2: "'sups' Superscript lookup 31 subtable" five.sups
Substitution2: "'subs' Subscript lookup 30 subtable" five.subs
Substitution2: "'tnum' Tabular Numbers lookup 28 subtable" five.tnum
Substitution2: "'c2sc' Capitals to Small Capitals lookup 18 subtable" five.sc
EndChar

StartChar: six
Encoding: 54 54 21
Width: 1365
GlyphClass: 2
Flags: W
LayerCount: 2
Fore
SplineSet
702 -36 m 0,0,1
 608 -36 608 -36 524 -9.5 c 128,-1,2
 440 17 440 17 366.5 75 c 128,-1,3
 293 133 293 133 240 218 c 128,-1,4
 187 303 187 303 156.5 427 c 128,-1,5
 126 551 126 551 126 703 c 2,6,-1
 126 705 l 2,7,8
 126 1069 126 1069 280.5 1274 c 128,-1,9
 435 1479 435 1479 708 1479 c 0,10,11
 904 1479 904 1479 1043 1374 c 128,-1,12
 1182 1269 1182 1269 1217 1101 c 1,13,-1
 1219 1090 l 1,14,-1
 966 1090 l 1,15,-1
 962 1100 l 2,16,17
 933 1178 933 1178 867 1222.5 c 128,-1,18
 801 1267 801 1267 708 1267 c 0,19,20
 625 1267 625 1267 561 1228.5 c 128,-1,21
 497 1190 497 1190 457.5 1120 c 128,-1,22
 418 1050 418 1050 396.5 962 c 128,-1,23
 375 874 375 874 371 767 c 0,24,25
 371 762 371 762 370.5 751 c 128,-1,26
 370 740 370 740 370 734 c 1,27,-1
 390 734 l 1,28,29
 433 827 433 827 530 888 c 128,-1,30
 627 949 627 949 767 949 c 0,31,32
 974 949 974 949 1106 814.5 c 128,-1,33
 1238 680 1238 680 1238 473 c 2,34,-1
 1238 471 l 2,35,36
 1238 251 1238 251 1087 107.5 c 128,-1,37
 936 -36 936 -36 702 -36 c 0,0,1
415 468 m 2,38,39
 415 344 415 344 497.5 259 c 128,-1,40
 580 174 580 174 700 174 c 128,-1,41
 820 174 820 174 903 257.5 c 128,-1,42
 986 341 986 341 986 462 c 2,43,-1
 986 464 l 2,44,45
 986 589 986 589 906 670 c 128,-1,46
 826 751 826 751 703 751 c 128,-1,47
 580 751 580 751 497.5 671.5 c 128,-1,48
 415 592 415 592 415 470 c 2,49,-1
 415 468 l 2,38,39
EndSplineSet
Substitution2: "'ss06' Style Set 6 lookup 45 subtable" six.1
Substitution2: "'frac' Diagonal Fractions lookup 35 subtable" six.numr
Substitution2: "'numr' Numerators lookup 33 subtable" six.numr
Substitution2: "'dnom' Denominators lookup 32 subtable" six.dnom
Substitution2: "'sups' Superscript lookup 31 subtable" six.sups
Substitution2: "'subs' Subscript lookup 30 subtable" six.subs
Substitution2: "'tnum' Tabular Numbers lookup 28 subtable" six.tnum
Substitution2: "'c2sc' Capitals to Small Capitals lookup 18 subtable" six.sc
EndChar

StartChar: seven
Encoding: 55 55 22
Width: 1212
GlyphClass: 2
Flags: W
LayerCount: 2
Fore
SplineSet
214 0 m 1,0,-1
 841 1216 l 1,1,-1
 841 1232 l 1,2,-1
 97 1232 l 1,3,-1
 97 1443 l 1,4,-1
 1101 1443 l 1,5,-1
 1101 1228 l 1,6,-1
 484 0 l 1,7,-1
 214 0 l 1,0,-1
EndSplineSet
Substitution2: "'frac' Diagonal Fractions lookup 35 subtable" seven.numr
Substitution2: "'numr' Numerators lookup 33 subtable" seven.numr
Substitution2: "'dnom' Denominators lookup 32 subtable" seven.dnom
Substitution2: "'sups' Superscript lookup 31 subtable" seven.sups
Substitution2: "'subs' Subscript lookup 30 subtable" seven.subs
Substitution2: "'tnum' Tabular Numbers lookup 28 subtable" seven.tnum
Substitution2: "'c2sc' Capitals to Small Capitals lookup 18 subtable" seven.sc
EndChar

StartChar: eight
Encoding: 56 56 23
Width: 1380
GlyphClass: 2
Flags: W
LayerCount: 2
Fore
SplineSet
690 -29 m 128,-1,1
 441 -29 441 -29 284 88 c 128,-1,2
 127 205 127 205 127 390 c 2,3,-1
 127 392 l 2,4,5
 127 529 127 529 217.5 629 c 128,-1,6
 308 729 308 729 454 759 c 1,7,-1
 454 765 l 1,8,9
 329 798 329 798 254 884 c 128,-1,10
 179 970 179 970 179 1085 c 2,11,-1
 179 1087 l 2,12,13
 179 1254 179 1254 323 1363 c 128,-1,14
 467 1472 467 1472 690 1472 c 128,-1,15
 913 1472 913 1472 1057 1363 c 128,-1,16
 1201 1254 1201 1254 1201 1087 c 2,17,-1
 1201 1085 l 2,18,19
 1201 970 1201 970 1126 884 c 128,-1,20
 1051 798 1051 798 926 765 c 1,21,-1
 926 759 l 1,22,23
 1072 729 1072 729 1162.5 629 c 128,-1,24
 1253 529 1253 529 1253 392 c 2,25,-1
 1253 390 l 2,26,27
 1253 205 1253 205 1096 88 c 128,-1,0
 939 -29 939 -29 690 -29 c 128,-1,1
690 847 m 128,-1,29
 803 847 803 847 874.5 906.5 c 128,-1,30
 946 966 946 966 946 1061 c 2,31,-1
 946 1063 l 2,32,33
 946 1158 946 1158 874.5 1217.5 c 128,-1,34
 803 1277 803 1277 690 1277 c 128,-1,35
 577 1277 577 1277 505.5 1217.5 c 128,-1,36
 434 1158 434 1158 434 1063 c 2,37,-1
 434 1061 l 2,38,39
 434 966 434 966 505.5 906.5 c 128,-1,28
 577 847 577 847 690 847 c 128,-1,29
690 168 m 128,-1,41
 820 168 820 168 903 235.5 c 128,-1,42
 986 303 986 303 986 407 c 2,43,-1
 986 409 l 2,44,45
 986 514 986 514 903 582 c 128,-1,46
 820 650 820 650 690 650 c 0,47,48
 559 650 559 650 476.5 582 c 128,-1,49
 394 514 394 514 394 409 c 2,50,-1
 394 407 l 2,51,52
 394 303 394 303 477 235.5 c 128,-1,40
 560 168 560 168 690 168 c 128,-1,41
EndSplineSet
Substitution2: "'frac' Diagonal Fractions lookup 35 subtable" eight.numr
Substitution2: "'numr' Numerators lookup 33 subtable" eight.numr
Substitution2: "'dnom' Denominators lookup 32 subtable" eight.dnom
Substitution2: "'sups' Superscript lookup 31 subtable" eight.sups
Substitution2: "'subs' Subscript lookup 30 subtable" eight.subs
Substitution2: "'tnum' Tabular Numbers lookup 28 subtable" eight.tnum
Substitution2: "'c2sc' Capitals to Small Capitals lookup 18 subtable" eight.sc
EndChar

StartChar: nine
Encoding: 57 57 24
Width: 1365
GlyphClass: 2
Flags: W
LayerCount: 2
Fore
SplineSet
663 1479 m 0,0,1
 757 1479 757 1479 841 1452.5 c 128,-1,2
 925 1426 925 1426 998.5 1368 c 128,-1,3
 1072 1310 1072 1310 1125 1225 c 128,-1,4
 1178 1140 1178 1140 1208.5 1016 c 128,-1,5
 1239 892 1239 892 1239 740 c 2,6,-1
 1239 738 l 2,7,8
 1239 374 1239 374 1084.5 169 c 128,-1,9
 930 -36 930 -36 657 -36 c 0,10,11
 461 -36 461 -36 322 69 c 128,-1,12
 183 174 183 174 148 342 c 1,13,-1
 146 353 l 1,14,-1
 400 353 l 1,15,-1
 403 343 l 1,16,17
 432 265 432 265 498 220.5 c 128,-1,18
 564 176 564 176 657 176 c 0,19,20
 740 176 740 176 804 214.5 c 128,-1,21
 868 253 868 253 907.5 323 c 128,-1,22
 947 393 947 393 968.5 481 c 128,-1,23
 990 569 990 569 994 676 c 0,24,25
 994 682 994 682 994.5 693 c 128,-1,26
 995 704 995 704 995 709 c 1,27,-1
 975 709 l 1,28,29
 932 616 932 616 835 555 c 128,-1,30
 738 494 738 494 598 494 c 0,31,32
 391 494 391 494 259 628.5 c 128,-1,33
 127 763 127 763 127 970 c 2,34,-1
 127 972 l 2,35,36
 127 1192 127 1192 278 1335.5 c 128,-1,37
 429 1479 429 1479 663 1479 c 0,0,1
662 692 m 128,-1,39
 785 692 785 692 867.5 771.5 c 128,-1,40
 950 851 950 851 950 973 c 2,41,-1
 950 975 l 2,42,43
 950 1099 950 1099 867.5 1184 c 128,-1,44
 785 1269 785 1269 665 1269 c 0,45,46
 546 1269 546 1269 462.5 1185.5 c 128,-1,47
 379 1102 379 1102 379 981 c 2,48,-1
 379 979 l 2,49,50
 379 854 379 854 459 773 c 128,-1,38
 539 692 539 692 662 692 c 128,-1,39
EndSplineSet
Substitution2: "'ss06' Style Set 6 lookup 46 subtable" nine.1
Substitution2: "'frac' Diagonal Fractions lookup 35 subtable" nine.numr
Substitution2: "'numr' Numerators lookup 33 subtable" nine.numr
Substitution2: "'dnom' Denominators lookup 32 subtable" nine.dnom
Substitution2: "'sups' Superscript lookup 31 subtable" nine.sups
Substitution2: "'subs' Subscript lookup 30 subtable" nine.subs
Substitution2: "'tnum' Tabular Numbers lookup 28 subtable" nine.tnum
Substitution2: "'c2sc' Capitals to Small Capitals lookup 18 subtable" nine.sc
EndChar

StartChar: colon
Encoding: 58 58 25
Width: 674
GlyphClass: 2
Flags: W
LayerCount: 2
Fore
SplineSet
337 723 m 0,0,1
 269 723 269 723 223.5 768.5 c 128,-1,2
 178 814 178 814 178 880 c 0,3,4
 178 947 178 947 223.5 992.5 c 128,-1,5
 269 1038 269 1038 337 1038 c 0,6,7
 406 1038 406 1038 451 992.5 c 128,-1,8
 496 947 496 947 496 880 c 0,9,10
 496 814 496 814 451 768.5 c 128,-1,11
 406 723 406 723 337 723 c 0,0,1
337 -20 m 128,-1,13
 269 -20 269 -20 223.5 26 c 128,-1,14
 178 72 178 72 178 138 c 0,15,16
 178 205 178 205 223.5 250.5 c 128,-1,17
 269 296 269 296 337 296 c 0,18,19
 406 296 406 296 451 250.5 c 128,-1,20
 496 205 496 205 496 138 c 128,-1,21
 496 71 496 71 450.5 25.5 c 128,-1,12
 405 -20 405 -20 337 -20 c 128,-1,13
EndSplineSet
Substitution2: "'ss03' Style Set 3 lookup 20 subtable" colon.uc
Substitution2: "'case' Case-Sensitive Forms lookup 17 subtable" colon.uc
EndChar

StartChar: semicolon
Encoding: 59 59 26
Width: 674
GlyphClass: 2
Flags: W
LayerCount: 2
Fore
SplineSet
337 723 m 0,0,1
 269 723 269 723 223.5 768.5 c 128,-1,2
 178 814 178 814 178 880 c 0,3,4
 178 947 178 947 223.5 992.5 c 128,-1,5
 269 1038 269 1038 337 1038 c 0,6,7
 406 1038 406 1038 451 992.5 c 128,-1,8
 496 947 496 947 496 880 c 0,9,10
 496 814 496 814 451 768.5 c 128,-1,11
 406 723 406 723 337 723 c 0,0,1
119 -381 m 1,12,-1
 206 220 l 1,13,-1
 463 220 l 1,14,-1
 289 -381 l 1,15,-1
 119 -381 l 1,12,-1
EndSplineSet
EndChar

StartChar: less
Encoding: 60 60 27
Width: 1344
GlyphClass: 2
Flags: W
LayerCount: 2
Fore
SplineSet
146 447 m 1,0,-1
 146 717 l 1,1,-1
 1198 1119 l 1,2,-1
 1198 891 l 1,3,-1
 336 585 l 1,4,-1
 1198 280 l 1,5,-1
 1198 45 l 1,6,-1
 146 447 l 1,0,-1
EndSplineSet
Substitution2: "'case' Case-Sensitive Forms lookup 17 subtable" less.uc
EndChar

StartChar: equal
Encoding: 61 61 28
Width: 1344
GlyphClass: 2
Flags: W
LayerCount: 2
Fore
SplineSet
134 742 m 1,0,-1
 134 969 l 1,1,-1
 1210 969 l 1,2,-1
 1210 742 l 1,3,-1
 134 742 l 1,0,-1
134 196 m 1,4,-1
 134 422 l 1,5,-1
 1210 422 l 1,6,-1
 1210 196 l 1,7,-1
 134 196 l 1,4,-1
EndSplineSet
Substitution2: "'frac' Diagonal Fractions lookup 35 subtable" equal.numr
Substitution2: "'numr' Numerators lookup 33 subtable" equal.numr
Substitution2: "'dnom' Denominators lookup 32 subtable" equal.dnom
Substitution2: "'sups' Superscript lookup 31 subtable" equal.sups
Substitution2: "'case' Case-Sensitive Forms lookup 17 subtable" equal.uc
EndChar

StartChar: greater
Encoding: 62 62 29
Width: 1344
GlyphClass: 2
Flags: W
LayerCount: 2
Fore
SplineSet
1198 717 m 1,0,-1
 1198 447 l 1,1,-1
 146 45 l 1,2,-1
 146 273 l 1,3,-1
 1008 578 l 1,4,-1
 146 884 l 1,5,-1
 146 1119 l 1,6,-1
 1198 717 l 1,0,-1
EndSplineSet
Substitution2: "'case' Case-Sensitive Forms lookup 17 subtable" greater.uc
EndChar

StartChar: questionmark
Encoding: 63 63 30
Width: 1108
GlyphClass: 2
Flags: W
LayerCount: 2
Fore
SplineSet
391 450 m 1,0,-1
 390 521 l 1,1,2
 383 630 383 630 427.5 704 c 128,-1,3
 472 778 472 778 577 840 c 0,4,5
 671 897 671 897 707 945.5 c 128,-1,6
 743 994 743 994 743 1067 c 2,7,-1
 743 1069 l 2,8,9
 743 1148 743 1148 685 1199.5 c 128,-1,10
 627 1251 627 1251 533 1251 c 0,11,12
 437 1251 437 1251 378 1196.5 c 128,-1,13
 319 1142 319 1142 314 1049 c 1,14,-1
 312 1048 l 1,15,-1
 79 1047 l 1,16,-1
 79 1049 l 1,17,18
 84 1230 84 1230 206.5 1342.5 c 128,-1,19
 329 1455 329 1455 546 1455 c 0,20,21
 750 1455 750 1455 876.5 1349.5 c 128,-1,22
 1003 1244 1003 1244 1003 1078 c 2,23,-1
 1003 1076 l 2,24,25
 1003 862 1003 862 791 736 c 0,26,27
 693 679 693 679 658 631 c 128,-1,28
 623 583 623 583 623 508 c 2,29,-1
 623 450 l 1,30,-1
 391 450 l 1,0,-1
518 -25 m 0,31,32
 443 -25 443 -25 397.5 18 c 128,-1,33
 352 61 352 61 352 132 c 0,34,35
 352 204 352 204 397.5 247 c 128,-1,36
 443 290 443 290 518 290 c 0,37,38
 594 290 594 290 639 247 c 128,-1,39
 684 204 684 204 684 132 c 128,-1,40
 684 60 684 60 639 17.5 c 128,-1,41
 594 -25 594 -25 518 -25 c 0,31,32
EndSplineSet
Substitution2: "'smcp' Lowercase to Small Capitals lookup 19 subtable" questionmark.sc
Substitution2: "'c2sc' Capitals to Small Capitals lookup 18 subtable" questionmark.sc
EndChar

StartChar: grave
Encoding: 96 96 31
Width: 1024
GlyphClass: 2
Flags: W
LayerCount: 2
Fore
SplineSet
536 1241 m 1,0,-1
 302 1589 l 1,1,-1
 552 1589 l 1,2,-1
 723 1241 l 1,3,-1
 536 1241 l 1,0,-1
EndSplineSet
EndChar

StartChar: a
Encoding: 97 97 32
Width: 1179
GlyphClass: 2
Flags: W
LayerCount: 2
Fore
SplineSet
450 -18 m 0,0,1
 292 -18 292 -18 191.5 71.5 c 128,-1,2
 91 161 91 161 91 309 c 2,3,-1
 91 311 l 2,4,5
 91 457 91 457 198.5 540.5 c 128,-1,6
 306 624 306 624 506 636 c 2,7,-1
 787 653 l 1,8,-1
 787 747 l 2,9,10
 787 829 787 829 734.5 872.5 c 128,-1,11
 682 916 682 916 582 916 c 0,12,13
 497 916 497 916 442.5 886.5 c 128,-1,14
 388 857 388 857 369 803 c 1,15,-1
 368 799 l 1,16,-1
 133 799 l 1,17,-1
 134 808 l 2,18,19
 152 947 152 947 276 1030.5 c 128,-1,20
 400 1114 400 1114 594 1114 c 0,21,22
 804 1114 804 1114 918.5 1017.5 c 128,-1,23
 1033 921 1033 921 1033 747 c 2,24,-1
 1033 0 l 1,25,-1
 787 0 l 1,26,-1
 787 150 l 1,27,-1
 770 150 l 1,28,29
 725 70 725 70 641.5 26 c 128,-1,30
 558 -18 558 -18 450 -18 c 0,0,1
337 321 m 2,31,32
 337 252 337 252 389.5 212.5 c 128,-1,33
 442 173 442 173 526 173 c 0,34,35
 638 173 638 173 712.5 238 c 128,-1,36
 787 303 787 303 787 401 c 2,37,-1
 787 489 l 1,38,-1
 541 473 l 2,39,40
 337 460 337 460 337 323 c 2,41,-1
 337 321 l 2,31,32
EndSplineSet
Substitution2: "'ss07' Style Set 7 lookup 39 subtable" a.1
Substitution2: "'ordn' Ordinals lookup 34 subtable" a.sups
Substitution2: "'dnom' Denominators lookup 32 subtable" a.dnom
Substitution2: "'sups' Superscript lookup 31 subtable" a.sups
Substitution2: "'subs' Subscript lookup 30 subtable" a.subs
Substitution2: "'smcp' Lowercase to Small Capitals lookup 19 subtable" A.sc
EndChar

StartChar: b
Encoding: 98 98 33
Width: 1306
GlyphClass: 2
Flags: W
LayerCount: 2
Fore
SplineSet
760 -18 m 0,0,1
 646 -18 646 -18 559.5 31.5 c 128,-1,2
 473 81 473 81 428 171 c 1,3,-1
 411 171 l 1,4,-1
 411 0 l 1,5,-1
 162 0 l 1,6,-1
 162 1516 l 1,7,-1
 411 1516 l 1,8,-1
 411 919 l 1,9,-1
 428 919 l 1,10,11
 471 1008 471 1008 559.5 1059.5 c 128,-1,12
 648 1111 648 1111 760 1111 c 0,13,14
 968 1111 968 1111 1088.5 959.5 c 128,-1,15
 1209 808 1209 808 1209 547 c 2,16,-1
 1209 545 l 2,17,18
 1209 286 1209 286 1087.5 134 c 128,-1,19
 966 -18 966 -18 760 -18 c 0,0,1
682 192 m 0,20,21
 810 192 810 192 882.5 286 c 128,-1,22
 955 380 955 380 955 545 c 2,23,-1
 955 547 l 2,24,25
 955 712 955 712 882 806.5 c 128,-1,26
 809 901 809 901 682 901 c 128,-1,27
 555 901 555 901 481.5 806 c 128,-1,28
 408 711 408 711 408 547 c 2,29,-1
 408 545 l 2,30,31
 408 381 408 381 481.5 286.5 c 128,-1,32
 555 192 555 192 682 192 c 0,20,21
EndSplineSet
Substitution2: "'ordn' Ordinals lookup 34 subtable" b.sups
Substitution2: "'dnom' Denominators lookup 32 subtable" b.dnom
Substitution2: "'sups' Superscript lookup 31 subtable" b.sups
Substitution2: "'subs' Subscript lookup 30 subtable" b.subs
Substitution2: "'smcp' Lowercase to Small Capitals lookup 19 subtable" B.sc
EndChar

StartChar: c
Encoding: 99 99 34
Width: 1182
GlyphClass: 2
Flags: W
LayerCount: 2
Fore
SplineSet
621 -22 m 0,0,1
 375 -22 375 -22 236.5 129 c 128,-1,2
 98 280 98 280 98 548 c 2,3,-1
 98 550 l 2,4,5
 98 815 98 815 236 964.5 c 128,-1,6
 374 1114 374 1114 620 1114 c 0,7,8
 826 1114 826 1114 950.5 1010 c 128,-1,9
 1075 906 1075 906 1097 732 c 1,10,-1
 1097 728 l 1,11,-1
 862 728 l 1,12,-1
 861 731 l 1,13,14
 843 814 843 814 781.5 863.5 c 128,-1,15
 720 913 720 913 621 913 c 0,16,17
 493 913 493 913 422 817.5 c 128,-1,18
 351 722 351 722 351 550 c 2,19,-1
 351 548 l 2,20,21
 351 374 351 374 422.5 277 c 128,-1,22
 494 180 494 180 621 180 c 0,23,24
 813 180 813 180 860 354 c 1,25,-1
 862 358 l 1,26,-1
 1097 359 l 1,27,-1
 1095 351 l 1,28,29
 1067 178 1067 178 945.5 78 c 128,-1,30
 824 -22 824 -22 621 -22 c 0,0,1
EndSplineSet
Substitution2: "'ordn' Ordinals lookup 34 subtable" c.sups
Substitution2: "'dnom' Denominators lookup 32 subtable" c.dnom
Substitution2: "'sups' Superscript lookup 31 subtable" c.sups
Substitution2: "'subs' Subscript lookup 30 subtable" c.subs
Substitution2: "'smcp' Lowercase to Small Capitals lookup 19 subtable" C.sc
EndChar

StartChar: d
Encoding: 100 100 35
Width: 1306
GlyphClass: 2
Flags: W
LayerCount: 2
Fore
SplineSet
546 -18 m 0,0,1
 340 -18 340 -18 219 134 c 128,-1,2
 98 286 98 286 98 545 c 2,3,-1
 98 547 l 2,4,5
 98 808 98 808 218 959.5 c 128,-1,6
 338 1111 338 1111 546 1111 c 0,7,8
 658 1111 658 1111 746.5 1059.5 c 128,-1,9
 835 1008 835 1008 878 919 c 1,10,-1
 895 919 l 1,11,-1
 895 1516 l 1,12,-1
 1145 1516 l 1,13,-1
 1145 0 l 1,14,-1
 895 0 l 1,15,-1
 895 171 l 1,16,-1
 878 171 l 1,17,18
 833 81 833 81 747 31.5 c 128,-1,19
 661 -18 661 -18 546 -18 c 0,0,1
624 192 m 128,-1,21
 752 192 752 192 825.5 286.5 c 128,-1,22
 899 381 899 381 899 545 c 2,23,-1
 899 547 l 2,24,25
 899 711 899 711 825 806 c 128,-1,26
 751 901 751 901 624 901 c 128,-1,27
 497 901 497 901 424 806.5 c 128,-1,28
 351 712 351 712 351 547 c 2,29,-1
 351 545 l 2,30,31
 351 380 351 380 423.5 286 c 128,-1,20
 496 192 496 192 624 192 c 128,-1,21
EndSplineSet
Substitution2: "'ordn' Ordinals lookup 34 subtable" d.sups
Substitution2: "'dnom' Denominators lookup 32 subtable" d.dnom
Substitution2: "'sups' Superscript lookup 31 subtable" d.sups
Substitution2: "'subs' Subscript lookup 30 subtable" d.subs
Substitution2: "'smcp' Lowercase to Small Capitals lookup 19 subtable" D.sc
EndChar

StartChar: e
Encoding: 101 101 36
Width: 1208
GlyphClass: 2
Flags: W
LayerCount: 2
Fore
SplineSet
620 -22 m 0,0,1
 377 -22 377 -22 237.5 130 c 128,-1,2
 98 282 98 282 98 544 c 2,3,-1
 98 545 l 2,4,5
 98 804 98 804 236.5 959 c 128,-1,6
 375 1114 375 1114 608 1114 c 0,7,8
 840 1114 840 1114 975.5 964.5 c 128,-1,9
 1111 815 1111 815 1111 566 c 2,10,-1
 1111 484 l 1,11,-1
 347 484 l 1,12,13
 349 338 349 338 423.5 256 c 128,-1,14
 498 174 498 174 625 174 c 0,15,16
 717 174 717 174 778 210.5 c 128,-1,17
 839 247 839 247 861 292 c 2,18,-1
 864 299 l 1,19,-1
 1101 299 l 1,20,-1
 1098 290 l 1,21,22
 1084 234 1084 234 1049.5 181.5 c 128,-1,23
 1015 129 1015 129 958.5 82 c 128,-1,24
 902 35 902 35 814 6.5 c 128,-1,25
 726 -22 726 -22 620 -22 c 0,0,1
611 919 m 0,26,27
 505 919 505 919 434 849 c 128,-1,28
 363 779 363 779 349 651 c 1,29,-1
 868 651 l 1,30,31
 856 782 856 782 787 850.5 c 128,-1,32
 718 919 718 919 611 919 c 0,26,27
EndSplineSet
Substitution2: "'ordn' Ordinals lookup 34 subtable" e.sups
Substitution2: "'dnom' Denominators lookup 32 subtable" e.dnom
Substitution2: "'sups' Superscript lookup 31 subtable" e.sups
Substitution2: "'subs' Subscript lookup 30 subtable" e.subs
Substitution2: "'smcp' Lowercase to Small Capitals lookup 19 subtable" E.sc
EndChar

StartChar: f
Encoding: 102 102 37
Width: 801
GlyphClass: 2
Flags: W
LayerCount: 2
Fore
SplineSet
232 0 m 1,0,-1
 232 900 l 1,1,-1
 53 900 l 1,2,-1
 53 1093 l 1,3,-1
 232 1093 l 1,4,-1
 232 1201 l 2,5,6
 232 1365 232 1365 318.5 1445.5 c 128,-1,7
 405 1526 405 1526 586 1526 c 0,8,9
 667 1526 667 1526 724 1516 c 1,10,-1
 724 1342 l 1,11,12
 692 1347 692 1347 639 1347 c 0,13,14
 553 1347 553 1347 515 1307 c 128,-1,15
 477 1267 477 1267 477 1187 c 2,16,-1
 477 1093 l 1,17,-1
 714 1093 l 1,18,-1
 714 900 l 1,19,-1
 481 900 l 1,20,-1
 481 0 l 1,21,-1
 232 0 l 1,0,-1
EndSplineSet
Substitution2: "'ordn' Ordinals lookup 34 subtable" f.sups
Substitution2: "'dnom' Denominators lookup 32 subtable" f.dnom
Substitution2: "'sups' Superscript lookup 31 subtable" f.sups
Substitution2: "'subs' Subscript lookup 30 subtable" f.subs
Substitution2: "'smcp' Lowercase to Small Capitals lookup 19 subtable" F.sc
EndChar

StartChar: g
Encoding: 103 103 38
Width: 1295
GlyphClass: 2
Flags: W
LayerCount: 2
Fore
SplineSet
622 -384 m 0,0,1
 410 -384 410 -384 282.5 -301 c 128,-1,2
 155 -218 155 -218 136 -77 c 1,3,-1
 137 -74 l 1,4,-1
 386 -74 l 1,5,-1
 387 -77 l 1,6,7
 400 -131 400 -131 462 -163.5 c 128,-1,8
 524 -196 524 -196 626 -196 c 0,9,10
 754 -196 754 -196 824.5 -139 c 128,-1,11
 895 -82 895 -82 895 23 c 2,12,-1
 895 232 l 1,13,-1
 878 232 l 1,14,15
 831 144 831 144 744.5 97.5 c 128,-1,16
 658 51 658 51 545 51 c 0,17,18
 339 51 339 51 217.5 195.5 c 128,-1,19
 96 340 96 340 96 575 c 2,20,-1
 96 577 l 2,21,22
 96 817 96 817 218.5 964 c 128,-1,23
 341 1111 341 1111 550 1111 c 0,24,25
 662 1111 662 1111 748 1059 c 128,-1,26
 834 1007 834 1007 881 913 c 1,27,-1
 894 913 l 1,28,-1
 894 1093 l 1,29,-1
 1143 1093 l 1,30,-1
 1143 27 l 2,31,32
 1143 -162 1143 -162 1002 -273 c 128,-1,33
 861 -384 861 -384 622 -384 c 0,0,1
622 249 m 128,-1,35
 750 249 750 249 824.5 338.5 c 128,-1,36
 899 428 899 428 899 575 c 2,37,-1
 899 577 l 2,38,39
 899 724 899 724 824 814 c 128,-1,40
 749 904 749 904 622 904 c 128,-1,41
 495 904 495 904 423 814.5 c 128,-1,42
 351 725 351 725 351 577 c 2,43,-1
 351 575 l 2,44,45
 351 427 351 427 422.5 338 c 128,-1,34
 494 249 494 249 622 249 c 128,-1,35
EndSplineSet
Substitution2: "'ordn' Ordinals lookup 34 subtable" g.sups
Substitution2: "'dnom' Denominators lookup 32 subtable" g.dnom
Substitution2: "'sups' Superscript lookup 31 subtable" g.sups
Substitution2: "'subs' Subscript lookup 30 subtable" g.subs
Substitution2: "'smcp' Lowercase to Small Capitals lookup 19 subtable" G.sc
EndChar

StartChar: h
Encoding: 104 104 39
Width: 1262
GlyphClass: 2
Flags: W
LayerCount: 2
Fore
SplineSet
162 0 m 1,0,-1
 162 1516 l 1,1,-1
 411 1516 l 1,2,-1
 411 926 l 1,3,-1
 428 926 l 1,4,5
 512 1114 512 1114 743 1114 c 0,6,7
 925 1114 925 1114 1022.5 1008.5 c 128,-1,8
 1120 903 1120 903 1120 707 c 2,9,-1
 1120 0 l 1,10,-1
 871 0 l 1,11,-1
 871 649 l 2,12,13
 871 778 871 778 817 841.5 c 128,-1,14
 763 905 763 905 651 905 c 0,15,16
 540 905 540 905 475.5 832.5 c 128,-1,17
 411 760 411 760 411 637 c 2,18,-1
 411 0 l 1,19,-1
 162 0 l 1,0,-1
EndSplineSet
Substitution2: "'ordn' Ordinals lookup 34 subtable" h.sups
Substitution2: "'dnom' Denominators lookup 32 subtable" h.dnom
Substitution2: "'sups' Superscript lookup 31 subtable" h.sups
Substitution2: "'subs' Subscript lookup 30 subtable" h.subs
Substitution2: "'smcp' Lowercase to Small Capitals lookup 19 subtable" H.sc
EndChar

StartChar: i
Encoding: 105 105 40
Width: 558
GlyphClass: 2
Flags: W
LayerCount: 2
Fore
SplineSet
280 1276 m 0,0,1
 218 1276 218 1276 174.5 1319 c 128,-1,2
 131 1362 131 1362 131 1423 c 128,-1,3
 131 1484 131 1484 174.5 1527 c 128,-1,4
 218 1570 218 1570 280 1570 c 0,5,6
 341 1570 341 1570 384.5 1527 c 128,-1,7
 428 1484 428 1484 428 1423 c 128,-1,8
 428 1362 428 1362 384.5 1319 c 128,-1,9
 341 1276 341 1276 280 1276 c 0,0,1
155 0 m 1,10,-1
 155 1093 l 1,11,-1
 404 1093 l 1,12,-1
 404 0 l 1,13,-1
 155 0 l 1,10,-1
EndSplineSet
Substitution2: "'ordn' Ordinals lookup 34 subtable" i.sups
Substitution2: "'dnom' Denominators lookup 32 subtable" i.dnom
Substitution2: "'sups' Superscript lookup 31 subtable" i.sups
Substitution2: "'subs' Subscript lookup 30 subtable" i.subs
Substitution2: "'smcp' Lowercase to Small Capitals lookup 19 subtable" I.sc
Substitution2: "'locl' Localized Forms in Latin lookup 15 subtable" idotabove
Substitution2: "Single Substitution lookup 12 subtable" iacute
EndChar

StartChar: j
Encoding: 106 106 41
Width: 557
GlyphClass: 2
Flags: W
LayerCount: 2
Fore
SplineSet
278 1276 m 0,0,1
 217 1276 217 1276 173.5 1319 c 128,-1,2
 130 1362 130 1362 130 1423 c 128,-1,3
 130 1484 130 1484 173.5 1527 c 128,-1,4
 217 1570 217 1570 278 1570 c 0,5,6
 340 1570 340 1570 383.5 1527 c 128,-1,7
 427 1484 427 1484 427 1423 c 128,-1,8
 427 1362 427 1362 383.5 1319 c 128,-1,9
 340 1276 340 1276 278 1276 c 0,0,1
34 -373 m 0,10,11
 2 -373 2 -373 -26 -371 c 1,12,-1
 -26 -175 l 1,13,14
 -16 -176 -16 -176 6 -176 c 0,15,16
 86 -176 86 -176 120 -145 c 128,-1,17
 154 -114 154 -114 154 -39 c 2,18,-1
 154 1093 l 1,19,-1
 403 1093 l 1,20,-1
 403 -42 l 2,21,22
 403 -373 403 -373 34 -373 c 0,10,11
EndSplineSet
Substitution2: "'ordn' Ordinals lookup 34 subtable" j.sups
Substitution2: "'dnom' Denominators lookup 32 subtable" j.dnom
Substitution2: "'sups' Superscript lookup 31 subtable" j.sups
Substitution2: "'subs' Subscript lookup 30 subtable" j.subs
Substitution2: "'smcp' Lowercase to Small Capitals lookup 19 subtable" J.sc
EndChar

StartChar: k
Encoding: 107 107 42
Width: 1188
GlyphClass: 2
Flags: W
LayerCount: 2
Fore
SplineSet
162 0 m 1,0,-1
 162 1516 l 1,1,-1
 411 1516 l 1,2,-1
 411 645 l 1,3,-1
 428 645 l 1,4,-1
 831 1093 l 1,5,-1
 1119 1093 l 1,6,-1
 679 631 l 1,7,-1
 1149 0 l 1,8,-1
 849 0 l 1,9,-1
 498 473 l 1,10,-1
 411 384 l 1,11,-1
 411 0 l 1,12,-1
 162 0 l 1,0,-1
EndSplineSet
Substitution2: "'ordn' Ordinals lookup 34 subtable" k.sups
Substitution2: "'dnom' Denominators lookup 32 subtable" k.dnom
Substitution2: "'sups' Superscript lookup 31 subtable" k.sups
Substitution2: "'subs' Subscript lookup 30 subtable" k.subs
Substitution2: "'smcp' Lowercase to Small Capitals lookup 19 subtable" K.sc
EndChar

StartChar: l
Encoding: 108 108 43
Width: 573
GlyphClass: 2
Flags: W
LayerCount: 2
Fore
SplineSet
162 0 m 1,0,-1
 162 1516 l 1,1,-1
 411 1516 l 1,2,-1
 411 0 l 1,3,-1
 162 0 l 1,0,-1
EndSplineSet
Substitution2: "'ss06' Style Set 6 lookup 40 subtable" l.1
Substitution2: "'ordn' Ordinals lookup 34 subtable" l.sups
Substitution2: "'dnom' Denominators lookup 32 subtable" l.dnom
Substitution2: "'sups' Superscript lookup 31 subtable" l.sups
Substitution2: "'subs' Subscript lookup 30 subtable" l.subs
Substitution2: "'smcp' Lowercase to Small Capitals lookup 19 subtable" L.sc
EndChar

StartChar: m
Encoding: 109 109 44
Width: 1863
GlyphClass: 2
Flags: W
LayerCount: 2
Fore
SplineSet
152 0 m 1,0,-1
 152 1093 l 1,1,-1
 401 1093 l 1,2,-1
 401 923 l 1,3,-1
 418 923 l 1,4,5
 453 1014 453 1014 531.5 1064 c 128,-1,6
 610 1114 610 1114 718 1114 c 0,7,8
 827 1114 827 1114 906 1061.5 c 128,-1,9
 985 1009 985 1009 1021 917 c 1,10,-1
 1038 917 l 1,11,12
 1078 1007 1078 1007 1167 1060.5 c 128,-1,13
 1256 1114 1256 1114 1369 1114 c 0,14,15
 1534 1114 1534 1114 1627.5 1018 c 128,-1,16
 1721 922 1721 922 1721 752 c 2,17,-1
 1721 0 l 1,18,-1
 1472 0 l 1,19,-1
 1472 691 l 2,20,21
 1472 905 1472 905 1274 905 c 0,22,23
 1178 905 1178 905 1119 842 c 128,-1,24
 1060 779 1060 779 1060 683 c 2,25,-1
 1060 0 l 1,26,-1
 811 0 l 1,27,-1
 811 709 l 2,28,29
 811 800 811 800 758 852.5 c 128,-1,30
 705 905 705 905 614 905 c 0,31,32
 522 905 522 905 461.5 836 c 128,-1,33
 401 767 401 767 401 665 c 2,34,-1
 401 0 l 1,35,-1
 152 0 l 1,0,-1
EndSplineSet
Substitution2: "'ordn' Ordinals lookup 34 subtable" m.sups
Substitution2: "'dnom' Denominators lookup 32 subtable" m.dnom
Substitution2: "'sups' Superscript lookup 31 subtable" m.sups
Substitution2: "'subs' Subscript lookup 30 subtable" m.subs
Substitution2: "'smcp' Lowercase to Small Capitals lookup 19 subtable" M.sc
EndChar

StartChar: n
Encoding: 110 110 45
Width: 1252
GlyphClass: 2
Flags: W
LayerCount: 2
Fore
SplineSet
152 0 m 1,0,-1
 152 1093 l 1,1,-1
 401 1093 l 1,2,-1
 401 926 l 1,3,-1
 418 926 l 1,4,5
 502 1114 502 1114 733 1114 c 0,6,7
 915 1114 915 1114 1012.5 1008.5 c 128,-1,8
 1110 903 1110 903 1110 707 c 2,9,-1
 1110 0 l 1,10,-1
 861 0 l 1,11,-1
 861 649 l 2,12,13
 861 778 861 778 807 841.5 c 128,-1,14
 753 905 753 905 641 905 c 0,15,16
 530 905 530 905 465.5 832.5 c 128,-1,17
 401 760 401 760 401 637 c 2,18,-1
 401 0 l 1,19,-1
 152 0 l 1,0,-1
EndSplineSet
Substitution2: "'ordn' Ordinals lookup 34 subtable" n.sups
Substitution2: "'dnom' Denominators lookup 32 subtable" n.dnom
Substitution2: "'sups' Superscript lookup 31 subtable" n.sups
Substitution2: "'subs' Subscript lookup 30 subtable" n.subs
Substitution2: "'smcp' Lowercase to Small Capitals lookup 19 subtable" N.sc
EndChar

StartChar: o
Encoding: 111 111 46
Width: 1248
GlyphClass: 2
Flags: W
LayerCount: 2
Fore
SplineSet
624 -22 m 0,0,1
 378 -22 378 -22 238 129 c 128,-1,2
 98 280 98 280 98 546 c 2,3,-1
 98 548 l 2,4,5
 98 811 98 811 239 962.5 c 128,-1,6
 380 1114 380 1114 624 1114 c 0,7,8
 869 1114 869 1114 1009.5 963 c 128,-1,9
 1150 812 1150 812 1150 548 c 2,10,-1
 1150 546 l 2,11,12
 1150 281 1150 281 1009.5 129.5 c 128,-1,13
 869 -22 869 -22 624 -22 c 0,0,1
624 180 m 128,-1,15
 753 180 753 180 824 276 c 128,-1,16
 895 372 895 372 895 545 c 2,17,-1
 895 547 l 2,18,19
 895 720 895 720 824 816.5 c 128,-1,20
 753 913 753 913 624 913 c 128,-1,21
 495 913 495 913 423.5 816.5 c 128,-1,22
 352 720 352 720 352 547 c 2,23,-1
 352 545 l 2,24,25
 352 372 352 372 423.5 276 c 128,-1,14
 495 180 495 180 624 180 c 128,-1,15
EndSplineSet
Substitution2: "'ordn' Ordinals lookup 34 subtable" o.sups
Substitution2: "'dnom' Denominators lookup 32 subtable" o.dnom
Substitution2: "'sups' Superscript lookup 31 subtable" o.sups
Substitution2: "'subs' Subscript lookup 30 subtable" o.subs
Substitution2: "'smcp' Lowercase to Small Capitals lookup 19 subtable" O.sc
EndChar

StartChar: p
Encoding: 112 112 47
Width: 1298
GlyphClass: 2
Flags: W
LayerCount: 2
Fore
SplineSet
152 -363 m 1,0,-1
 152 1093 l 1,1,-1
 401 1093 l 1,2,-1
 401 922 l 1,3,-1
 418 922 l 1,4,5
 463 1012 463 1012 549.5 1061.5 c 128,-1,6
 636 1111 636 1111 750 1111 c 0,7,8
 956 1111 956 1111 1077.5 958.5 c 128,-1,9
 1199 806 1199 806 1199 547 c 2,10,-1
 1199 545 l 2,11,12
 1199 284 1199 284 1078.5 133 c 128,-1,13
 958 -18 958 -18 750 -18 c 0,14,15
 638 -18 638 -18 549.5 33.5 c 128,-1,16
 461 85 461 85 418 174 c 1,17,-1
 401 174 l 1,18,-1
 401 -363 l 1,19,-1
 152 -363 l 1,0,-1
672 192 m 128,-1,21
 799 192 799 192 872 286.5 c 128,-1,22
 945 381 945 381 945 545 c 2,23,-1
 945 547 l 2,24,25
 945 712 945 712 872 806.5 c 128,-1,26
 799 901 799 901 672 901 c 128,-1,27
 545 901 545 901 471.5 806.5 c 128,-1,28
 398 712 398 712 398 548 c 2,29,-1
 398 546 l 2,30,31
 398 382 398 382 471.5 287 c 128,-1,20
 545 192 545 192 672 192 c 128,-1,21
EndSplineSet
Substitution2: "'ordn' Ordinals lookup 34 subtable" p.sups
Substitution2: "'dnom' Denominators lookup 32 subtable" p.dnom
Substitution2: "'sups' Superscript lookup 31 subtable" p.sups
Substitution2: "'subs' Subscript lookup 30 subtable" p.subs
Substitution2: "'smcp' Lowercase to Small Capitals lookup 19 subtable" P.sc
EndChar

StartChar: q
Encoding: 113 113 48
Width: 1298
GlyphClass: 2
Flags: W
LayerCount: 2
Fore
SplineSet
898 -363 m 1,0,-1
 898 166 l 1,1,-1
 881 166 l 1,2,3
 839 79 839 79 751.5 30.5 c 128,-1,4
 664 -18 664 -18 547 -18 c 0,5,6
 341 -18 341 -18 220 134 c 128,-1,7
 99 286 99 286 99 545 c 2,8,-1
 99 547 l 2,9,10
 99 808 99 808 219.5 959.5 c 128,-1,11
 340 1111 340 1111 550 1111 c 0,12,13
 661 1111 661 1111 749.5 1058 c 128,-1,14
 838 1005 838 1005 885 912 c 1,15,-1
 898 912 l 1,16,-1
 898 1093 l 1,17,-1
 1147 1093 l 1,18,-1
 1147 -363 l 1,19,-1
 898 -363 l 1,0,-1
627 192 m 0,20,21
 753 192 753 192 827.5 287 c 128,-1,22
 902 382 902 382 902 545 c 2,23,-1
 902 547 l 2,24,25
 902 710 902 710 827 805.5 c 128,-1,26
 752 901 752 901 626 901 c 0,27,28
 498 901 498 901 425 806.5 c 128,-1,29
 352 712 352 712 352 547 c 2,30,-1
 352 545 l 2,31,32
 352 380 352 380 425.5 286 c 128,-1,33
 499 192 499 192 627 192 c 0,20,21
EndSplineSet
Substitution2: "'ordn' Ordinals lookup 34 subtable" q.sups
Substitution2: "'dnom' Denominators lookup 32 subtable" q.dnom
Substitution2: "'sups' Superscript lookup 31 subtable" q.sups
Substitution2: "'subs' Subscript lookup 30 subtable" q.subs
Substitution2: "'smcp' Lowercase to Small Capitals lookup 19 subtable" Q.sc
EndChar

StartChar: r
Encoding: 114 114 49
Width: 851
GlyphClass: 2
Flags: W
LayerCount: 2
Fore
SplineSet
152 0 m 1,0,-1
 152 1093 l 1,1,-1
 401 1093 l 1,2,-1
 401 925 l 1,3,-1
 418 925 l 1,4,5
 446 1013 446 1013 519 1062 c 128,-1,6
 592 1111 592 1111 699 1111 c 0,7,8
 759 1111 759 1111 800 1099 c 1,9,-1
 800 876 l 1,10,11
 730 890 730 890 676 890 c 0,12,13
 551 890 551 890 476 821 c 128,-1,14
 401 752 401 752 401 635 c 2,15,-1
 401 0 l 1,16,-1
 152 0 l 1,0,-1
EndSplineSet
Substitution2: "'ordn' Ordinals lookup 34 subtable" r.sups
Substitution2: "'dnom' Denominators lookup 32 subtable" r.dnom
Substitution2: "'sups' Superscript lookup 31 subtable" r.sups
Substitution2: "'subs' Subscript lookup 30 subtable" r.subs
Substitution2: "'smcp' Lowercase to Small Capitals lookup 19 subtable" R.sc
EndChar

StartChar: s
Encoding: 115 115 50
Width: 1128
GlyphClass: 2
Flags: W
LayerCount: 2
Fore
SplineSet
565 -22 m 0,0,1
 361 -22 361 -22 237.5 63.5 c 128,-1,2
 114 149 114 149 98 291 c 1,3,-1
 98 293 l 1,4,-1
 345 293 l 1,5,-1
 346 291 l 1,6,7
 366 231 366 231 422.5 196.5 c 128,-1,8
 479 162 479 162 569 162 c 0,9,10
 662 162 662 162 720.5 200.5 c 128,-1,11
 779 239 779 239 779 300 c 2,12,-1
 779 302 l 2,13,14
 779 351 779 351 739.5 383 c 128,-1,15
 700 415 700 415 611 435 c 2,16,-1
 434 475 l 2,17,18
 278 510 278 510 202.5 584.5 c 128,-1,19
 127 659 127 659 127 780 c 2,20,-1
 127 781 l 2,21,22
 127 929 127 929 249 1021.5 c 128,-1,23
 371 1114 371 1114 565 1114 c 128,-1,24
 759 1114 759 1114 876.5 1028 c 128,-1,25
 994 942 994 942 1006 805 c 1,26,-1
 1006 803 l 1,27,-1
 772 803 l 1,28,-1
 771 806 l 1,29,30
 757 861 757 861 702.5 896 c 128,-1,31
 648 931 648 931 564 931 c 128,-1,32
 480 931 480 931 426.5 893.5 c 128,-1,33
 373 856 373 856 373 795 c 2,34,-1
 373 794 l 2,35,36
 373 746 373 746 411 715 c 128,-1,37
 449 684 449 684 537 664 c 2,38,-1
 714 625 l 2,39,40
 876 589 876 589 952.5 517 c 128,-1,41
 1029 445 1029 445 1029 327 c 2,42,-1
 1029 325 l 2,43,44
 1029 170 1029 170 898.5 74 c 128,-1,45
 768 -22 768 -22 565 -22 c 0,0,1
EndSplineSet
Substitution2: "'ordn' Ordinals lookup 34 subtable" s.sups
Substitution2: "'dnom' Denominators lookup 32 subtable" s.dnom
Substitution2: "'sups' Superscript lookup 31 subtable" s.sups
Substitution2: "'subs' Subscript lookup 30 subtable" s.subs
Substitution2: "'smcp' Lowercase to Small Capitals lookup 19 subtable" S.sc
EndChar

StartChar: t
Encoding: 116 116 51
Width: 808
GlyphClass: 2
Flags: W
LayerCount: 2
Fore
SplineSet
582 -5 m 0,0,1
 393 -5 393 -5 310.5 63.5 c 128,-1,2
 228 132 228 132 228 290 c 2,3,-1
 228 900 l 1,4,-1
 58 900 l 1,5,-1
 58 1093 l 1,6,-1
 228 1093 l 1,7,-1
 228 1361 l 1,8,-1
 481 1361 l 1,9,-1
 481 1093 l 1,10,-1
 712 1093 l 1,11,-1
 712 900 l 1,12,-1
 481 900 l 1,13,-1
 481 349 l 2,14,15
 481 267 481 267 515.5 230.5 c 128,-1,16
 550 194 550 194 628 194 c 0,17,18
 672 194 672 194 712 198 c 1,19,-1
 712 6 l 1,20,21
 655 -5 655 -5 582 -5 c 0,0,1
EndSplineSet
Substitution2: "'ordn' Ordinals lookup 34 subtable" t.sups
Substitution2: "'dnom' Denominators lookup 32 subtable" t.dnom
Substitution2: "'sups' Superscript lookup 31 subtable" t.sups
Substitution2: "'subs' Subscript lookup 30 subtable" t.subs
Substitution2: "'smcp' Lowercase to Small Capitals lookup 19 subtable" T.sc
EndChar

StartChar: u
Encoding: 117 117 52
Width: 1252
GlyphClass: 2
Flags: W
LayerCount: 2
Fore
SplineSet
514 -22 m 0,0,1
 331 -22 331 -22 236.5 83.5 c 128,-1,2
 142 189 142 189 142 386 c 2,3,-1
 142 1093 l 1,4,-1
 391 1093 l 1,5,-1
 391 443 l 2,6,7
 391 314 391 314 442 251 c 128,-1,8
 493 188 493 188 604 188 c 0,9,10
 723 188 723 188 787 259.5 c 128,-1,11
 851 331 851 331 851 456 c 2,12,-1
 851 1093 l 1,13,-1
 1100 1093 l 1,14,-1
 1100 0 l 1,15,-1
 851 0 l 1,16,-1
 851 166 l 1,17,-1
 834 166 l 1,18,19
 795 77 795 77 713 27.5 c 128,-1,20
 631 -22 631 -22 514 -22 c 0,0,1
EndSplineSet
Substitution2: "'ordn' Ordinals lookup 34 subtable" u.sups
Substitution2: "'dnom' Denominators lookup 32 subtable" u.dnom
Substitution2: "'sups' Superscript lookup 31 subtable" u.sups
Substitution2: "'subs' Subscript lookup 30 subtable" u.subs
Substitution2: "'smcp' Lowercase to Small Capitals lookup 19 subtable" U.sc
EndChar

StartChar: v
Encoding: 118 118 53
Width: 1163
GlyphClass: 2
Flags: W
LayerCount: 2
Fore
SplineSet
446 0 m 1,0,-1
 57 1093 l 1,1,-1
 323 1093 l 1,2,-1
 576 243 l 1,3,-1
 593 243 l 1,4,-1
 844 1093 l 1,5,-1
 1106 1093 l 1,6,-1
 719 0 l 1,7,-1
 446 0 l 1,0,-1
EndSplineSet
Substitution2: "'ordn' Ordinals lookup 34 subtable" v.sups
Substitution2: "'dnom' Denominators lookup 32 subtable" v.dnom
Substitution2: "'sups' Superscript lookup 31 subtable" v.sups
Substitution2: "'subs' Subscript lookup 30 subtable" v.subs
Substitution2: "'smcp' Lowercase to Small Capitals lookup 19 subtable" V.sc
EndChar

StartChar: w
Encoding: 119 119 54
Width: 1681
GlyphClass: 2
Flags: W
LayerCount: 2
Fore
SplineSet
360 0 m 1,0,-1
 64 1093 l 1,1,-1
 314 1093 l 1,2,-1
 496 272 l 1,3,-1
 513 272 l 1,4,-1
 723 1093 l 1,5,-1
 960 1093 l 1,6,-1
 1172 272 l 1,7,-1
 1189 272 l 1,8,-1
 1370 1093 l 1,9,-1
 1617 1093 l 1,10,-1
 1321 0 l 1,11,-1
 1060 0 l 1,12,-1
 847 792 l 1,13,-1
 830 792 l 1,14,-1
 618 0 l 1,15,-1
 360 0 l 1,0,-1
EndSplineSet
Substitution2: "'ordn' Ordinals lookup 34 subtable" w.sups
Substitution2: "'dnom' Denominators lookup 32 subtable" w.dnom
Substitution2: "'sups' Superscript lookup 31 subtable" w.sups
Substitution2: "'subs' Subscript lookup 30 subtable" w.subs
Substitution2: "'smcp' Lowercase to Small Capitals lookup 19 subtable" W.sc
EndChar

StartChar: x
Encoding: 120 120 55
Width: 1147
GlyphClass: 2
Flags: W
LayerCount: 2
Fore
SplineSet
69 0 m 1,0,-1
 423 542 l 1,1,-1
 66 1093 l 1,2,-1
 354 1093 l 1,3,-1
 571 714 l 1,4,-1
 588 714 l 1,5,-1
 804 1093 l 1,6,-1
 1077 1093 l 1,7,-1
 724 553 l 1,8,-1
 1081 0 l 1,9,-1
 801 0 l 1,10,-1
 577 380 l 1,11,-1
 560 380 l 1,12,-1
 337 0 l 1,13,-1
 69 0 l 1,0,-1
EndSplineSet
Substitution2: "'ordn' Ordinals lookup 34 subtable" x.sups
Substitution2: "'dnom' Denominators lookup 32 subtable" x.dnom
Substitution2: "'sups' Superscript lookup 31 subtable" x.sups
Substitution2: "'subs' Subscript lookup 30 subtable" x.subs
Substitution2: "'smcp' Lowercase to Small Capitals lookup 19 subtable" X.sc
EndChar

StartChar: y
Encoding: 121 121 56
Width: 1183
GlyphClass: 2
Flags: W
LayerCount: 2
Fore
SplineSet
269 -384 m 0,0,1
 214 -384 214 -384 174 -380 c 1,2,-1
 174 -189 l 1,3,4
 204 -192 204 -192 248 -192 c 0,5,6
 325 -192 325 -192 371.5 -158 c 128,-1,7
 418 -124 418 -124 438 -51 c 2,8,-1
 451 -1 l 1,9,-1
 60 1093 l 1,10,-1
 332 1093 l 1,11,-1
 587 239 l 1,12,-1
 606 239 l 1,13,-1
 860 1093 l 1,14,-1
 1122 1093 l 1,15,-1
 730 -23 l 2,16,17
 660 -226 660 -226 556.5 -305 c 128,-1,18
 453 -384 453 -384 269 -384 c 0,0,1
EndSplineSet
Substitution2: "'ordn' Ordinals lookup 34 subtable" y.sups
Substitution2: "'dnom' Denominators lookup 32 subtable" y.dnom
Substitution2: "'sups' Superscript lookup 31 subtable" y.sups
Substitution2: "'subs' Subscript lookup 30 subtable" y.subs
Substitution2: "'smcp' Lowercase to Small Capitals lookup 19 subtable" Y.sc
EndChar

StartChar: z
Encoding: 122 122 57
Width: 1140
GlyphClass: 2
Flags: W
LayerCount: 2
Fore
SplineSet
127 0 m 1,0,-1
 127 152 l 1,1,-1
 710 883 l 1,2,-1
 710 900 l 1,3,-1
 132 900 l 1,4,-1
 132 1093 l 1,5,-1
 1004 1093 l 1,6,-1
 1004 927 l 1,7,-1
 442 210 l 1,8,-1
 442 192 l 1,9,-1
 1013 192 l 1,10,-1
 1013 0 l 1,11,-1
 127 0 l 1,0,-1
EndSplineSet
Substitution2: "'ordn' Ordinals lookup 34 subtable" z.sups
Substitution2: "'dnom' Denominators lookup 32 subtable" z.dnom
Substitution2: "'sups' Superscript lookup 31 subtable" z.sups
Substitution2: "'subs' Subscript lookup 30 subtable" z.subs
Substitution2: "'smcp' Lowercase to Small Capitals lookup 19 subtable" Z.sc
EndChar

StartChar: braceleft
Encoding: 123 123 58
Width: 843
GlyphClass: 2
Flags: W
LayerCount: 2
Fore
SplineSet
701 -363 m 2,0,1
 495 -363 495 -363 400.5 -275 c 128,-1,2
 306 -187 306 -187 306 2 c 2,3,-1
 306 249 l 2,4,5
 306 362 306 362 254 408.5 c 128,-1,6
 202 455 202 455 75 456 c 1,7,-1
 75 702 l 1,8,9
 202 702 202 702 254 748.5 c 128,-1,10
 306 795 306 795 306 909 c 2,11,-1
 306 1154 l 2,12,13
 306 1342 306 1342 400.5 1429 c 128,-1,14
 495 1516 495 1516 701 1516 c 2,15,-1
 768 1516 l 1,16,-1
 768 1330 l 1,17,-1
 725 1330 l 2,18,19
 627 1330 627 1330 585 1282.5 c 128,-1,20
 543 1235 543 1235 543 1124 c 2,21,-1
 543 837 l 2,22,23
 543 620 543 620 296 593 c 1,24,-1
 296 564 l 1,25,26
 543 538 543 538 543 321 c 2,27,-1
 543 29 l 2,28,29
 543 -82 543 -82 585 -129.5 c 128,-1,30
 627 -177 627 -177 725 -177 c 2,31,-1
 768 -177 l 1,32,-1
 768 -363 l 1,33,-1
 701 -363 l 2,0,1
EndSplineSet
Substitution2: "'case' Case-Sensitive Forms lookup 17 subtable" braceleft.uc
EndChar

StartChar: bar
Encoding: 124 124 59
Width: 583
GlyphClass: 2
Flags: W
LayerCount: 2
Fore
SplineSet
178 -363 m 1,0,-1
 178 1443 l 1,1,-1
 405 1443 l 1,2,-1
 405 -363 l 1,3,-1
 178 -363 l 1,0,-1
EndSplineSet
Substitution2: "'case' Case-Sensitive Forms lookup 17 subtable" bar.uc
EndChar

StartChar: braceright
Encoding: 125 125 60
Width: 843
GlyphClass: 2
Flags: W
LayerCount: 2
Fore
SplineSet
142 -363 m 2,0,-1
 75 -363 l 1,1,-1
 75 -177 l 1,2,-1
 118 -177 l 2,3,4
 216 -177 216 -177 258.5 -129.5 c 128,-1,5
 301 -82 301 -82 301 29 c 2,6,-1
 301 321 l 2,7,8
 301 538 301 538 547 564 c 1,9,-1
 547 593 l 1,10,11
 301 620 301 620 301 837 c 2,12,-1
 301 1124 l 2,13,14
 301 1235 301 1235 259 1282.5 c 128,-1,15
 217 1330 217 1330 118 1330 c 2,16,-1
 75 1330 l 1,17,-1
 75 1516 l 1,18,-1
 142 1516 l 2,19,20
 348 1516 348 1516 442.5 1429 c 128,-1,21
 537 1342 537 1342 537 1154 c 2,22,-1
 537 909 l 2,23,24
 537 795 537 795 589 748.5 c 128,-1,25
 641 702 641 702 768 702 c 1,26,-1
 768 456 l 1,27,28
 641 455 641 455 589 408.5 c 128,-1,29
 537 362 537 362 537 249 c 2,30,-1
 537 2 l 2,31,32
 537 -187 537 -187 442.5 -275 c 128,-1,33
 348 -363 348 -363 142 -363 c 2,0,-1
EndSplineSet
Substitution2: "'case' Case-Sensitive Forms lookup 17 subtable" braceright.uc
EndChar

StartChar: asciitilde
Encoding: 126 126 61
Width: 1344
GlyphClass: 2
Flags: W
LayerCount: 2
Fore
SplineSet
917 400 m 0,0,1
 856 400 856 400 784 424 c 128,-1,2
 712 448 712 448 657 477 c 128,-1,3
 602 506 602 506 535 530 c 128,-1,4
 468 554 468 554 416 554 c 0,5,6
 238 554 238 554 134 435 c 1,7,-1
 134 654 l 1,8,9
 247 771 247 771 427 771 c 0,10,11
 488 771 488 771 560 747 c 128,-1,12
 632 723 632 723 687 694 c 128,-1,13
 742 665 742 665 809 641 c 128,-1,14
 876 617 876 617 928 617 c 0,15,16
 1105 617 1105 617 1210 737 c 1,17,-1
 1210 518 l 1,18,19
 1096 400 1096 400 917 400 c 0,0,1
EndSplineSet
EndChar

StartChar: exclamationmarkinverted
Encoding: 161 161 62
Width: 696
GlyphClass: 2
Flags: W
LayerCount: 2
Fore
SplineSet
348 1118 m 128,-1,1
 424 1118 424 1118 469 1075 c 128,-1,2
 514 1032 514 1032 514 961 c 0,3,4
 514 889 514 889 469 846 c 128,-1,5
 424 803 424 803 348 803 c 128,-1,6
 272 803 272 803 227 846 c 128,-1,7
 182 889 182 889 182 961 c 0,8,9
 182 1032 182 1032 227 1075 c 128,-1,0
 272 1118 272 1118 348 1118 c 128,-1,1
463 615 m 1,10,-1
 486 -351 l 1,11,-1
 210 -351 l 1,12,-1
 233 615 l 1,13,-1
 463 615 l 1,10,-1
EndSplineSet
Substitution2: "'smcp' Lowercase to Small Capitals lookup 19 subtable" exclamationmarkinverted.sc
Substitution2: "'c2sc' Capitals to Small Capitals lookup 18 subtable" exclamationmarkinverted.sc
Substitution2: "'case' Case-Sensitive Forms lookup 17 subtable" exclamationmarkinverted.uc
EndChar

StartChar: centsign
Encoding: 162 162 63
Width: 1344
GlyphClass: 2
Flags: W
LayerCount: 2
Fore
SplineSet
641 0 m 1,0,-1
 641 167 l 1,1,2
 425 186 425 186 299.5 333 c 128,-1,3
 174 480 174 480 174 721 c 2,4,-1
 174 723 l 2,5,6
 174 962 174 962 300 1110 c 128,-1,7
 426 1258 426 1258 641 1277 c 1,8,-1
 641 1442 l 1,9,-1
 757 1442 l 1,10,-1
 757 1278 l 1,11,12
 946 1262 946 1262 1061.5 1149.5 c 128,-1,13
 1177 1037 1177 1037 1190 875 c 1,14,-1
 1188 874 l 1,15,-1
 957 874 l 1,16,-1
 956 875 l 1,17,18
 942 955 942 955 891 1008 c 128,-1,19
 840 1061 840 1061 757 1075 c 1,20,-1
 757 369 l 1,21,22
 839 381 839 381 890 431 c 128,-1,23
 941 481 941 481 956 563 c 1,24,-1
 958 563 l 1,25,-1
 1189 564 l 1,26,-1
 1190 562 l 1,27,28
 1176 395 1176 395 1059 288 c 128,-1,29
 942 181 942 181 757 166 c 1,30,-1
 757 0 l 1,31,-1
 641 0 l 1,0,-1
424 721 m 2,32,33
 424 569 424 569 481 480.5 c 128,-1,34
 538 392 538 392 641 371 c 1,35,-1
 641 1073 l 1,36,37
 538 1052 538 1052 481 962.5 c 128,-1,38
 424 873 424 873 424 723 c 2,39,-1
 424 721 l 2,32,33
EndSplineSet
Substitution2: "'ss04' Style Set 4 lookup 47 subtable" centsign.open
Substitution2: "'numr' Numerators lookup 33 subtable" centsign.numr
Substitution2: "'c2sc' Capitals to Small Capitals lookup 18 subtable" centsign.sc
EndChar

StartChar: sterlingsign
Encoding: 163 163 64
Width: 1344
GlyphClass: 2
Flags: W
LayerCount: 2
Fore
SplineSet
123 30 m 1,0,-1
 123 229 l 1,1,2
 258 257 258 257 334.5 338 c 128,-1,3
 411 419 411 419 411 535 c 0,4,5
 411 590 411 590 394 653 c 1,6,-1
 123 653 l 1,7,-1
 123 797 l 1,8,-1
 344 797 l 1,9,10
 298 915 298 915 298 1003 c 0,11,12
 298 1198 298 1198 441.5 1310 c 128,-1,13
 585 1422 585 1422 835 1422 c 0,14,15
 1030 1422 1030 1422 1149 1369 c 1,16,-1
 1149 1164 l 1,17,18
 1103 1185 1103 1185 1023.5 1199.5 c 128,-1,19
 944 1214 944 1214 865 1214 c 0,20,21
 717 1214 717 1214 634.5 1152.5 c 128,-1,22
 552 1091 552 1091 552 981 c 0,23,24
 552 905 552 905 593 797 c 1,25,-1
 1051 797 l 1,26,-1
 1051 653 l 1,27,-1
 642 653 l 1,28,29
 656 595 656 595 656 547 c 0,30,31
 656 352 656 352 477 251 c 1,32,-1
 477 239 l 1,33,-1
 1216 239 l 1,34,-1
 1216 30 l 1,35,-1
 123 30 l 1,0,-1
EndSplineSet
Substitution2: "'numr' Numerators lookup 33 subtable" sterlingsign.numr
Substitution2: "'c2sc' Capitals to Small Capitals lookup 18 subtable" sterlingsign.sc
EndChar

StartChar: currencysign
Encoding: 164 164 65
Width: 1344
GlyphClass: 2
Flags: W
LayerCount: 2
Fore
SplineSet
1094 722 m 2,0,-1
 1094 721 l 2,1,2
 1094 597 1094 597 1031 496 c 1,3,-1
 1228 299 l 1,4,-1
 1095 165 l 1,5,-1
 898 362 l 1,6,7
 796 299 796 299 673 299 c 2,8,-1
 671 299 l 2,9,10
 548 299 548 299 446 362 c 1,11,-1
 249 165 l 1,12,-1
 116 299 l 1,13,-1
 313 496 l 1,14,15
 249 598 249 598 249 721 c 2,16,-1
 249 722 l 2,17,18
 249 845 249 845 313 947 c 1,19,-1
 116 1144 l 1,20,-1
 249 1278 l 1,21,-1
 446 1081 l 1,22,23
 548 1144 548 1144 671 1144 c 2,24,-1
 673 1144 l 2,25,26
 796 1144 796 1144 898 1081 c 1,27,-1
 1095 1278 l 1,28,-1
 1228 1144 l 1,29,-1
 1031 947 l 1,30,31
 1094 846 1094 846 1094 722 c 2,0,-1
921 722 m 2,32,33
 921 826 921 826 849 898 c 128,-1,34
 777 970 777 970 672 970 c 2,35,-1
 670 970 l 2,36,37
 566 970 566 970 494 898 c 128,-1,38
 422 826 422 826 422 722 c 2,39,-1
 422 720 l 2,40,41
 422 616 422 616 494 544 c 128,-1,42
 566 472 566 472 670 472 c 2,43,-1
 672 472 l 2,44,45
 777 472 777 472 849 544 c 128,-1,46
 921 616 921 616 921 720 c 2,47,-1
 921 722 l 2,32,33
EndSplineSet
EndChar

StartChar: yensign
Encoding: 165 165 66
Width: 1344
GlyphClass: 2
Flags: W
LayerCount: 2
Fore
SplineSet
206 278 m 1,0,-1
 206 395 l 1,1,-1
 546 395 l 1,2,-1
 546 544 l 1,3,-1
 206 544 l 1,4,-1
 206 661 l 1,5,-1
 489 661 l 1,6,-1
 55 1413 l 1,7,-1
 331 1413 l 1,8,-1
 668 783 l 1,9,-1
 679 783 l 1,10,-1
 1016 1413 l 1,11,-1
 1289 1413 l 1,12,-1
 855 661 l 1,13,-1
 1138 661 l 1,14,-1
 1138 544 l 1,15,-1
 798 544 l 1,16,-1
 798 395 l 1,17,-1
 1138 395 l 1,18,-1
 1138 278 l 1,19,-1
 798 278 l 1,20,-1
 798 30 l 1,21,-1
 546 30 l 1,22,-1
 546 278 l 1,23,-1
 206 278 l 1,0,-1
EndSplineSet
Substitution2: "'numr' Numerators lookup 33 subtable" yensign.numr
Substitution2: "'c2sc' Capitals to Small Capitals lookup 18 subtable" yensign.sc
EndChar

StartChar: brokenbar
Encoding: 166 166 67
Width: 583
GlyphClass: 2
Flags: W
LayerCount: 2
Fore
SplineSet
405 1444 m 1,0,-1
 405 719 l 1,1,-1
 178 719 l 1,2,-1
 178 1444 l 1,3,-1
 405 1444 l 1,0,-1
178 -363 m 1,4,-1
 178 362 l 1,5,-1
 405 362 l 1,6,-1
 405 -363 l 1,7,-1
 178 -363 l 1,4,-1
EndSplineSet
Substitution2: "'case' Case-Sensitive Forms lookup 17 subtable" brokenbar.uc
EndChar

StartChar: section
Encoding: 167 167 68
Width: 1321
GlyphClass: 2
Flags: W
LayerCount: 2
Fore
SplineSet
662 -271 m 0,0,1
 472 -271 472 -271 346.5 -183 c 128,-1,2
 221 -95 221 -95 208 46 c 2,3,-1
 207 57 l 1,4,-1
 445 57 l 1,5,-1
 446 51 l 2,6,7
 457 -12 457 -12 518.5 -51 c 128,-1,8
 580 -90 580 -90 668 -90 c 0,9,10
 761 -90 761 -90 819 -47.5 c 128,-1,11
 877 -5 877 -5 877 62 c 2,12,-1
 877 64 l 2,13,14
 877 116 877 116 833.5 151 c 128,-1,15
 790 186 790 186 696 211 c 2,16,-1
 524 259 l 2,17,18
 354 307 354 307 275.5 381.5 c 128,-1,19
 197 456 197 456 197 566 c 2,20,-1
 197 568 l 2,21,22
 197 663 197 663 258.5 735.5 c 128,-1,23
 320 808 320 808 423 840 c 1,24,-1
 423 856 l 1,25,26
 313 906 313 906 260 974 c 128,-1,27
 207 1042 207 1042 207 1135 c 2,28,-1
 207 1137 l 2,29,30
 207 1288 207 1288 332 1380.5 c 128,-1,31
 457 1473 457 1473 660 1473 c 0,32,33
 846 1473 846 1473 967 1390 c 128,-1,34
 1088 1307 1088 1307 1107 1167 c 2,35,-1
 1109 1154 l 1,36,-1
 872 1154 l 1,37,-1
 871 1160 l 2,38,39
 861 1220 861 1220 802.5 1255.5 c 128,-1,40
 744 1291 744 1291 659 1291 c 0,41,42
 567 1291 567 1291 510 1250.5 c 128,-1,43
 453 1210 453 1210 453 1144 c 2,44,-1
 453 1142 l 2,45,46
 453 1090 453 1090 494 1055.5 c 128,-1,47
 535 1021 535 1021 626 995 c 2,48,-1
 798 947 l 2,49,50
 969 899 969 899 1047.5 826.5 c 128,-1,51
 1126 754 1126 754 1126 646 c 2,52,-1
 1126 644 l 2,53,54
 1126 545 1126 545 1064.5 471.5 c 128,-1,55
 1003 398 1003 398 898 366 c 1,56,-1
 898 351 l 1,57,58
 1012 301 1012 301 1066.5 233 c 128,-1,59
 1121 165 1121 165 1121 72 c 2,60,-1
 1121 70 l 2,61,62
 1121 -82 1121 -82 993.5 -176.5 c 128,-1,63
 866 -271 866 -271 662 -271 c 0,0,1
599 447 m 2,64,-1
 705 417 l 1,65,66
 790 432 790 432 839 478.5 c 128,-1,67
 888 525 888 525 888 594 c 2,68,-1
 888 596 l 2,69,70
 888 713 888 713 723 759 c 2,71,-1
 617 789 l 1,72,73
 532 774 532 774 483.5 727 c 128,-1,74
 435 680 435 680 435 612 c 2,75,-1
 435 610 l 2,76,77
 435 495 435 495 599 447 c 2,64,-1
EndSplineSet
EndChar

StartChar: dieresis
Encoding: 168 168 69
Width: 1024
GlyphClass: 2
Flags: W
LayerCount: 2
Fore
SplineSet
277 1283 m 128,-1,1
 221 1283 221 1283 180.5 1323 c 128,-1,2
 140 1363 140 1363 140 1419 c 0,3,4
 140 1474 140 1474 180.5 1513.5 c 128,-1,5
 221 1553 221 1553 277 1553 c 128,-1,6
 333 1553 333 1553 373 1513.5 c 128,-1,7
 413 1474 413 1474 413 1419 c 0,8,9
 413 1363 413 1363 373 1323 c 128,-1,0
 333 1283 333 1283 277 1283 c 128,-1,1
748 1283 m 0,10,11
 692 1283 692 1283 652 1323 c 128,-1,12
 612 1363 612 1363 612 1419 c 0,13,14
 612 1474 612 1474 652 1513.5 c 128,-1,15
 692 1553 692 1553 748 1553 c 0,16,17
 805 1553 805 1553 845 1514 c 128,-1,18
 885 1475 885 1475 885 1419 c 128,-1,19
 885 1363 885 1363 845 1323 c 128,-1,20
 805 1283 805 1283 748 1283 c 0,10,11
EndSplineSet
EndChar

StartChar: copyright
Encoding: 169 169 70
Width: 1837
GlyphClass: 2
Flags: W
LayerCount: 2
Fore
SplineSet
1720 725 m 2,0,-1
 1720 718 l 2,1,2
 1720 553 1720 553 1657.5 405 c 128,-1,3
 1595 257 1595 257 1489 151 c 128,-1,4
 1383 45 1383 45 1235 -17.5 c 128,-1,5
 1087 -80 1087 -80 922 -80 c 2,6,-1
 915 -80 l 2,7,8
 750 -80 750 -80 602 -17.5 c 128,-1,9
 454 45 454 45 348 151 c 128,-1,10
 242 257 242 257 179.5 405 c 128,-1,11
 117 553 117 553 117 718 c 2,12,-1
 117 725 l 2,13,14
 117 890 117 890 179.5 1038 c 128,-1,15
 242 1186 242 1186 348 1292 c 128,-1,16
 454 1398 454 1398 602 1460.5 c 128,-1,17
 750 1523 750 1523 915 1523 c 2,18,-1
 922 1523 l 2,19,20
 1087 1523 1087 1523 1235 1460.5 c 128,-1,21
 1383 1398 1383 1398 1489 1292 c 128,-1,22
 1595 1186 1595 1186 1657.5 1038 c 128,-1,23
 1720 890 1720 890 1720 725 c 2,0,-1
1560 725 m 2,24,25
 1560 857 1560 857 1510.5 975 c 128,-1,26
 1461 1093 1461 1093 1376 1178 c 128,-1,27
 1291 1263 1291 1263 1172.5 1313 c 128,-1,28
 1054 1363 1054 1363 922 1363 c 2,29,-1
 915 1363 l 2,30,31
 739 1363 739 1363 592.5 1278.5 c 128,-1,32
 446 1194 446 1194 361.5 1047.5 c 128,-1,33
 277 901 277 901 277 725 c 2,34,-1
 277 718 l 2,35,36
 277 542 277 542 361.5 395.5 c 128,-1,37
 446 249 446 249 592.5 164.5 c 128,-1,38
 739 80 739 80 915 80 c 2,39,-1
 922 80 l 2,40,41
 1054 80 1054 80 1172.5 130 c 128,-1,42
 1291 180 1291 180 1376 265 c 128,-1,43
 1461 350 1461 350 1510.5 468 c 128,-1,44
 1560 586 1560 586 1560 718 c 2,45,-1
 1560 725 l 2,24,25
932 342 m 0,46,47
 762 342 762 342 664.5 443.5 c 128,-1,48
 567 545 567 545 567 721 c 2,49,-1
 567 722 l 2,50,51
 567 898 567 898 664.5 999.5 c 128,-1,52
 762 1101 762 1101 931 1101 c 0,53,54
 1071 1101 1071 1101 1165.5 1022.5 c 128,-1,55
 1260 944 1260 944 1270 823 c 1,56,-1
 1270 814 l 1,57,-1
 1097 814 l 1,58,-1
 1097 818 l 1,59,60
 1086 874 1086 874 1040.5 910 c 128,-1,61
 995 946 995 946 931 946 c 0,62,63
 847 946 847 946 798.5 886.5 c 128,-1,64
 750 827 750 827 750 722 c 2,65,-1
 750 721 l 2,66,67
 750 617 750 617 798.5 557 c 128,-1,68
 847 497 847 497 932 497 c 0,69,70
 997 497 997 497 1041 531 c 128,-1,71
 1085 565 1085 565 1096 621 c 2,72,-1
 1097 627 l 1,73,-1
 1270 627 l 1,74,-1
 1270 618 l 1,75,76
 1259 495 1259 495 1166.5 418.5 c 128,-1,77
 1074 342 1074 342 932 342 c 0,46,47
EndSplineSet
EndChar

StartChar: a.sups
Encoding: 170 170 71
Width: 854
GlyphClass: 2
Flags: W
LayerCount: 2
Fore
SplineSet
322 748 m 0,0,1
 218 748 218 748 152 804.5 c 128,-1,2
 86 861 86 861 86 954 c 2,3,-1
 86 955 l 2,4,5
 86 1047 86 1047 157.5 1099.5 c 128,-1,6
 229 1152 229 1152 362 1160 c 2,7,-1
 543 1170 l 1,8,-1
 543 1226 l 2,9,10
 543 1271 543 1271 510 1295 c 128,-1,11
 477 1319 477 1319 414 1319 c 0,12,13
 303 1319 303 1319 280 1255 c 1,14,-1
 278 1253 l 1,15,-1
 113 1253 l 1,16,-1
 114 1259 l 1,17,18
 125 1350 125 1350 208.5 1404 c 128,-1,19
 292 1458 292 1458 423 1458 c 0,20,21
 563 1458 563 1458 640 1397 c 128,-1,22
 717 1336 717 1336 717 1226 c 2,23,-1
 717 759 l 1,24,-1
 543 759 l 1,25,-1
 543 850 l 1,26,-1
 531 850 l 1,27,28
 502 802 502 802 447.5 775 c 128,-1,29
 393 748 393 748 322 748 c 0,0,1
259 965 m 2,30,31
 259 927 259 927 292 904 c 128,-1,32
 325 881 325 881 378 881 c 0,33,34
 448 881 448 881 495.5 917.5 c 128,-1,35
 543 954 543 954 543 1008 c 2,36,-1
 543 1059 l 1,37,-1
 388 1050 l 2,38,39
 259 1043 259 1043 259 966 c 2,40,-1
 259 965 l 2,30,31
EndSplineSet
EndChar

StartChar: guillemetleft
Encoding: 171 171 72
Width: 1403
GlyphClass: 2
Flags: W
LayerCount: 2
Fore
SplineSet
512 148 m 1,0,-1
 166 561 l 1,1,-1
 166 569 l 1,2,-1
 515 982 l 1,3,-1
 761 982 l 1,4,-1
 413 572 l 1,5,-1
 413 560 l 1,6,-1
 761 148 l 1,7,-1
 512 148 l 1,0,-1
988 148 m 1,8,-1
 642 561 l 1,9,-1
 642 569 l 1,10,-1
 991 982 l 1,11,-1
 1238 982 l 1,12,-1
 890 572 l 1,13,-1
 890 560 l 1,14,-1
 1238 148 l 1,15,-1
 988 148 l 1,8,-1
EndSplineSet
EndChar

StartChar: two.sups
Encoding: 178 178 73
Width: 755
GlyphClass: 2
Flags: W
LayerCount: 2
Fore
SplineSet
89 759 m 1,0,-1
 89 885 l 1,1,-1
 346 1110 l 2,2,3
 433 1188 433 1188 462 1225.5 c 128,-1,4
 491 1263 491 1263 491 1297 c 2,5,-1
 491 1300 l 2,6,7
 491 1343 491 1343 458.5 1369.5 c 128,-1,8
 426 1396 426 1396 372 1396 c 0,9,10
 315 1396 315 1396 279.5 1366 c 128,-1,11
 244 1336 244 1336 244 1287 c 2,12,-1
 244 1283 l 1,13,-1
 79 1284 l 1,14,-1
 78 1287 l 1,15,16
 78 1399 78 1399 161.5 1468.5 c 128,-1,17
 245 1538 245 1538 380 1538 c 0,18,19
 507 1538 507 1538 586.5 1476.5 c 128,-1,20
 666 1415 666 1415 666 1315 c 2,21,-1
 666 1312 l 2,22,23
 666 1247 666 1247 622.5 1183 c 128,-1,24
 579 1119 579 1119 471 1029 c 2,25,-1
 328 912 l 1,26,-1
 328 906 l 1,27,-1
 677 906 l 1,28,-1
 677 759 l 1,29,-1
 89 759 l 1,0,-1
EndSplineSet
Position2: "Single Positioning lookup 1 subtable" dx=0 dy=0 dh=-200 dv=0
EndChar

StartChar: three.sups
Encoding: 179 179 74
Width: 785
GlyphClass: 2
Flags: W
LayerCount: 2
Fore
SplineSet
393 740 m 0,0,1
 255 740 255 740 170 804.5 c 128,-1,2
 85 869 85 869 77 977 c 1,3,-1
 76 984 l 1,4,-1
 246 984 l 1,5,-1
 247 978 l 2,6,7
 253 939 253 939 292 914 c 128,-1,8
 331 889 331 889 393 889 c 0,9,10
 454 889 454 889 491.5 916 c 128,-1,11
 529 943 529 943 529 987 c 2,12,-1
 529 988 l 2,13,14
 529 1034 529 1034 489.5 1059.5 c 128,-1,15
 450 1085 450 1085 379 1085 c 2,16,-1
 289 1085 l 1,17,-1
 289 1213 l 1,18,-1
 377 1213 l 2,19,20
 439 1213 439 1213 475.5 1238 c 128,-1,21
 512 1263 512 1263 512 1304 c 2,22,-1
 512 1305 l 2,23,24
 512 1347 512 1347 480 1371.5 c 128,-1,25
 448 1396 448 1396 391 1396 c 128,-1,26
 334 1396 334 1396 298.5 1370.5 c 128,-1,27
 263 1345 263 1345 258 1303 c 1,28,-1
 258 1298 l 1,29,-1
 94 1298 l 1,30,-1
 94 1305 l 1,31,32
 103 1411 103 1411 183 1474 c 128,-1,33
 263 1537 263 1537 391 1537 c 0,34,35
 523 1537 523 1537 602 1480.5 c 128,-1,36
 681 1424 681 1424 681 1331 c 2,37,-1
 681 1330 l 2,38,39
 681 1261 681 1261 634 1215 c 128,-1,40
 587 1169 587 1169 513 1156 c 1,41,-1
 513 1152 l 1,42,43
 604 1144 604 1144 657.5 1098 c 128,-1,44
 711 1052 711 1052 711 977 c 2,45,-1
 711 976 l 2,46,47
 711 869 711 869 624 804.5 c 128,-1,48
 537 740 537 740 393 740 c 0,0,1
EndSplineSet
Position2: "Single Positioning lookup 1 subtable" dx=0 dy=0 dh=-200 dv=0
EndChar
